<svg xmlns="http://www.w3.org/2000/svg" xmlns:xlink="http://www.w3.org/1999/xlink" width="533" zoomAndPan="magnify" viewBox="0 0 399.75 159.000002" height="212" preserveAspectRatio="xMidYMid meet" version="1.0"><defs><g/><clipPath id="1242c8416a"><path d="M 153 0 L 268.5625 0 L 268.5625 156 L 153 156 Z M 153 0 " clip-rule="nonzero"/></clipPath><clipPath id="17f5c4a66e"><path d="M 139.378906 32.648438 L 184.804688 32.648438 L 184.804688 78.074219 L 139.378906 78.074219 Z M 139.378906 32.648438 " clip-rule="nonzero"/></clipPath><clipPath id="1f18acad57"><path d="M 258.453125 74.628906 L 281.875 74.628906 L 281.875 98.054688 L 258.453125 98.054688 Z M 258.453125 74.628906 " clip-rule="nonzero"/></clipPath></defs><g clip-path="url(#1242c8416a)"><path fill="#000000" d="M 181.832031 124.964844 C 167.4375 121.660156 156.027344 123.667969 154.011719 129.921875 C 152.878906 133.460938 154.992188 137.746094 159.957031 141.980469 C 169.046875 149.734375 185.230469 155.308594 197.898438 155.308594 C 203.515625 155.308594 211.355469 154.082031 213.023438 148.800781 C 215.171875 142.152344 205.5625 133.109375 190.617188 127.613281 C 192.34375 113 200.96875 94.066406 209.476562 81.402344 C 230.8125 68.644531 254.277344 54.726562 254.660156 54.375 C 257.652344 53.164062 260.738281 50.957031 261.621094 47.871094 C 263.613281 41.671875 257.722656 33.476562 245.875 25.953125 C 245.855469 25.941406 245.828125 25.953125 245.804688 25.941406 C 245.277344 25.605469 244.714844 25.265625 244.160156 24.929688 L 246.539062 21.742188 L 267.515625 7.777344 C 268.230469 7.285156 268.574219 6.347656 268.207031 5.441406 C 268.171875 5.355469 268.164062 5.261719 268.121094 5.175781 C 267.820312 4.628906 266.578125 2.773438 265.382812 1.761719 C 265.242188 1.640625 265.121094 1.476562 264.972656 1.363281 C 264.96875 1.363281 264.964844 1.363281 264.964844 1.359375 C 264.367188 0.914062 263.496094 0.835938 262.769531 1.308594 C 261.429688 2.183594 242.671875 14.640625 243 14.4375 L 241.417969 15.488281 C 241.25 15.609375 241.128906 15.730469 240.9375 15.933594 L 237.078125 21.105469 C 232.59375 18.945312 227.847656 16.953125 221.472656 14.890625 C 195.675781 6.660156 172.917969 8.222656 169.652344 18.453125 C 169.039062 20.300781 169.140625 22.753906 170.113281 25.027344 C 170.117188 25.046875 170.105469 25.066406 170.113281 25.085938 L 193.191406 77.1875 C 192.878906 89.121094 190.835938 101.214844 187.273438 112.167969 C 185.65625 117.121094 183.859375 121.335938 181.832031 124.964844 Z M 211.511719 148.3125 C 211.070312 149.710938 209.96875 150.875 208.234375 151.773438 C 198.636719 156.75 173.851562 151.742188 160.988281 140.769531 C 156.605469 137.03125 154.617188 133.253906 155.527344 130.40625 C 157.207031 125.214844 168.058594 123.550781 180.996094 126.410156 C 178.875 129.929688 176.507812 132.863281 173.8125 135.273438 C 172.691406 136.277344 172.757812 138.082031 174.019531 138.90625 C 178.511719 141.878906 183.597656 143.742188 189.027344 143.601562 C 190.480469 143.566406 191.449219 142.148438 191.125 140.757812 C 190.238281 136.898438 190.136719 133.011719 190.453125 129.25 C 204.140625 134.378906 213.34375 142.640625 211.511719 148.3125 Z M 174.96875 32.121094 C 184.234375 41.742188 200.660156 48.898438 213.582031 52.582031 L 210.21875 57.09375 C 200.183594 54.273438 190.617188 49.765625 183.378906 44.15625 C 183.089844 43.96875 182.742188 44.285156 182.867188 44.601562 L 197.332031 78.933594 C 198.347656 81.609375 201.175781 82.5625 203.589844 81.035156 L 237.757812 60.703125 C 238.046875 60.480469 237.917969 60.003906 237.570312 60.035156 C 231.605469 60.613281 225.144531 60.207031 218.667969 59.027344 L 221.945312 54.640625 C 230.53125 56.457031 240.542969 57.457031 249.140625 55.882812 L 203.910156 82.871094 C 201.183594 84.492188 197.664062 83.363281 196.386719 80.476562 Z M 178.738281 24.238281 C 178.101562 23.792969 177.433594 23.378906 176.796875 22.933594 C 177.464844 24.269531 178.132812 25.609375 178.832031 26.945312 C 178.164062 26.65625 177.496094 26.371094 176.859375 26.054688 C 178.609375 28.789062 180.578125 31.527344 182.328125 34.230469 C 177.972656 31.652344 174.414062 27.582031 172.570312 22.839844 C 172.441406 22.519531 172.570312 22.109375 172.855469 21.886719 C 174.890625 20.453125 177.304688 19.5625 179.785156 19.339844 C 178.703125 20.707031 178.324219 22.519531 178.738281 24.238281 Z M 242.328125 16.792969 L 245.976562 14.367188 C 264.410156 2.230469 263.671875 2.371094 264.015625 2.636719 C 264.023438 2.644531 264.027344 2.652344 264.035156 2.65625 C 264.835938 3.265625 265.523438 4.109375 266.164062 5.09375 C 266.539062 5.6875 267.039062 6.179688 266.609375 6.460938 L 245.664062 20.417969 C 245.65625 20.421875 245.652344 20.425781 245.648438 20.429688 C 245.488281 20.53125 245.359375 20.65625 245.164062 20.867188 L 221.269531 52.867188 C 219.589844 52.515625 217.921875 52.097656 216.273438 51.65625 L 242.3125 16.808594 C 242.316406 16.804688 242.324219 16.796875 242.328125 16.792969 Z M 245.460938 47.359375 C 245.460938 46.519531 248.058594 46.519531 248.058594 47.359375 C 248.058594 47.710938 247.476562 47.996094 246.761719 47.996094 C 246.042969 47.996094 245.460938 47.710938 245.460938 47.359375 Z M 252.109375 49.71875 C 252.980469 49.71875 253.683594 50.066406 253.683594 50.492188 C 253.683594 50.921875 252.980469 51.269531 252.109375 51.269531 C 251.238281 51.269531 250.53125 50.921875 250.53125 50.492188 C 250.53125 50.066406 251.238281 49.71875 252.109375 49.71875 Z M 251.753906 46.363281 C 252.746094 46.363281 252.75 47.082031 251.753906 47.082031 C 250.757812 47.082031 250.765625 46.363281 251.753906 46.363281 Z M 220.0625 65.8125 C 220.308594 66.050781 220.722656 65.980469 221.023438 66.144531 C 221.921875 66.644531 221.136719 68.222656 219.5625 67.617188 C 218.929688 67.371094 218.40625 66.855469 218.152344 66.222656 C 217.828125 65.414062 217.871094 63.96875 218.996094 63.875 C 220.5625 63.75 219.414062 65.1875 220.0625 65.8125 Z M 189.0625 40.691406 C 186.863281 33.0625 191.234375 25.015625 198.859375 22.710938 C 204.074219 21.164062 209.4375 22.734375 213.09375 26.265625 C 212.277344 27.3125 210.921875 27.929688 209.601562 27.765625 C 209.167969 27.710938 208.726562 27.582031 208.300781 27.675781 C 207.875 27.769531 207.480469 28.210938 207.632812 28.621094 C 207.769531 28.988281 208.253906 29.101562 208.636719 29.011719 C 209.023438 28.925781 209.367188 28.707031 209.75 28.621094 C 210.136719 28.535156 210.621094 28.648438 210.753906 29.019531 C 211.011719 29.734375 209.671875 30.492188 210.226562 31.128906 C 210.492188 31.4375 211.039062 31.25 211.25 30.902344 C 211.457031 30.550781 211.453125 30.117188 211.511719 29.714844 C 211.691406 28.472656 212.609375 27.390625 213.78125 26.949219 C 215.183594 28.503906 216.304688 30.347656 216.941406 32.484375 C 217.863281 35.558594 217.695312 38.679688 216.707031 41.492188 C 215.355469 40.921875 213.988281 40.390625 212.601562 39.90625 C 211.929688 39.675781 211.796875 40.1875 212.210938 40.585938 C 213.347656 41.671875 215.359375 41.503906 216.074219 43.035156 C 214.710938 45.832031 212.476562 48.210938 209.488281 49.691406 C 202.398438 47.371094 194.933594 44.070312 189.0625 40.691406 Z M 207.171875 71.777344 C 207.160156 71.796875 207.15625 71.820312 207.148438 71.839844 C 205.902344 71.386719 204.082031 69.878906 203.417969 68.632812 C 203.421875 68.628906 203.421875 68.632812 203.421875 68.628906 C 204.257812 68.871094 206.339844 70.257812 207.171875 71.777344 Z M 208.191406 70.382812 C 207.230469 69.179688 206.085938 68.09375 204.539062 67.359375 L 215.238281 53.042969 C 216.882812 53.496094 218.558594 53.886719 220.234375 54.25 Z M 204.152344 73.261719 C 205.457031 73.152344 204.5 74.351562 205.042969 74.871094 C 205.246094 75.070312 205.589844 75.011719 205.839844 75.148438 C 206.09375 75.289062 206.199219 75.628906 206.105469 75.90625 C 205.773438 76.90625 203.992188 76.570312 203.449219 75.214844 C 203.183594 74.539062 203.214844 73.335938 204.152344 73.261719 Z M 193.710938 56.839844 C 194.074219 57.191406 194.6875 57.085938 195.132812 57.332031 C 195.585938 57.582031 195.773438 58.1875 195.609375 58.679688 C 195.445312 59.171875 194.988281 59.527344 194.488281 59.65625 C 193.984375 59.78125 193.449219 59.699219 192.96875 59.511719 C 192.027344 59.148438 191.25 58.382812 190.875 57.445312 C 190.394531 56.246094 190.457031 54.101562 192.125 53.964844 C 194.449219 53.773438 192.746094 55.90625 193.710938 56.839844 Z M 198.609375 73.574219 C 198.121094 73.390625 197.632812 73.203125 197.144531 73.019531 C 197.921875 73.933594 198.695312 74.851562 199.472656 75.765625 C 199.050781 75.589844 198.628906 75.410156 198.207031 75.234375 C 198.796875 76.898438 199.632812 78.644531 200.964844 79.800781 C 200.003906 79.773438 199.132812 79.179688 198.539062 78.421875 C 197.945312 77.664062 197.589844 76.753906 197.242188 75.855469 C 196.386719 73.648438 195.527344 71.441406 194.671875 69.234375 C 195.78125 70.855469 197.132812 72.273438 198.609375 73.574219 Z M 228.386719 62.019531 C 229.078125 62.019531 229.078125 63.066406 228.386719 63.066406 C 227.695312 63.066406 227.691406 62.019531 228.386719 62.019531 Z M 230.34375 63.46875 C 230.34375 63.726562 229.957031 63.726562 229.957031 63.46875 C 229.957031 63.363281 230.34375 63.214844 230.34375 63.46875 Z M 230.34375 61.554688 C 230.859375 61.554688 230.859375 62.332031 230.34375 62.332031 C 230.132812 62.332031 229.832031 61.554688 230.34375 61.554688 Z M 245.023438 27.328125 C 245.050781 27.34375 245.082031 27.339844 245.109375 27.351562 C 256.25 34.449219 261.855469 41.933594 260.101562 47.40625 C 259.886719 48.160156 259.539062 48.804688 259.074219 49.390625 C 257.816406 44.164062 252.1875 38.203125 243.640625 32.796875 L 239.839844 30.707031 L 243.203125 26.207031 C 243.820312 26.582031 244.4375 26.953125 245.023438 27.328125 Z M 171.164062 18.945312 C 174.109375 9.714844 196.472656 8.582031 220.988281 16.40625 C 226.242188 18.105469 231.117188 20.019531 235.480469 22.09375 L 236.089844 22.390625 C 236.097656 22.394531 236.105469 22.398438 236.113281 22.402344 L 232.730469 26.933594 C 228.609375 25.03125 224.15625 23.289062 219.386719 21.757812 C 197.792969 14.847656 177.894531 14.984375 170.875 21.378906 C 170.828125 20.554688 170.90625 19.714844 171.164062 18.945312 Z M 194.59375 80.347656 L 194.933594 81.121094 C 196.609375 84.894531 201.195312 86.339844 204.726562 84.238281 L 206.402344 83.238281 C 197.011719 98.082031 185.566406 123.679688 189.582031 141.113281 C 189.675781 141.539062 189.417969 142.003906 188.988281 142.011719 C 184.167969 142.160156 179.507812 140.632812 174.894531 137.578125 C 172.660156 136.125 181.5 135.023438 188.78125 112.660156 C 192.085938 102.515625 194.027344 91.414062 194.59375 80.347656 Z M 194.59375 80.347656 " fill-opacity="1" fill-rule="nonzero"/></g><path fill="#000000" d="M 168.308594 127.308594 C 165.375 127.414062 161.9375 127.65625 160.25 130.34375 C 159.355469 131.773438 159.308594 133.632812 159.902344 135.210938 C 161.117188 138.441406 164.304688 140.121094 167.488281 141.445312 C 164.964844 139.503906 162.804688 136.835938 163.664062 133.765625 C 164.0625 132.339844 165.277344 131.109375 166.746094 130.921875 C 165.128906 130.78125 163.464844 131.203125 162.109375 132.097656 C 163.617188 129.9375 165.835938 128.214844 168.308594 127.308594 Z M 168.308594 127.308594 " fill-opacity="1" fill-rule="nonzero"/><path fill="#000000" d="M 205.117188 145.910156 C 206.109375 145.910156 206.917969 145.558594 206.917969 145.121094 C 206.917969 144.6875 206.109375 144.335938 205.117188 144.335938 C 204.121094 144.335938 203.316406 144.6875 203.316406 145.121094 C 203.316406 145.558594 204.121094 145.910156 205.117188 145.910156 Z M 205.117188 145.910156 " fill-opacity="1" fill-rule="nonzero"/><path fill="#000000" d="M 201.007812 147.066406 C 201.007812 146.507812 199.039062 146.507812 199.039062 147.066406 C 199.039062 147.625 201.007812 147.625 201.007812 147.066406 Z M 201.007812 147.066406 " fill-opacity="1" fill-rule="nonzero"/><path fill="#000000" d="M 204.722656 148.894531 C 204.722656 148.375 202.867188 148.375 202.867188 148.894531 C 202.867188 149.113281 204.722656 149.417969 204.722656 148.894531 Z M 204.722656 148.894531 " fill-opacity="1" fill-rule="nonzero"/><path fill="#000000" d="M 178.039062 137.582031 C 179.699219 138.164062 181.359375 138.742188 183.019531 139.324219 C 182.007812 138.324219 180.855469 137.390625 179.84375 136.390625 C 180.246094 136.507812 180.648438 136.625 181.050781 136.746094 C 180.683594 136.230469 180.320312 135.710938 179.953125 135.195312 C 180.359375 135.398438 180.769531 135.601562 181.175781 135.800781 C 180.917969 134.835938 180.960938 133.855469 181.109375 132.863281 C 177.445312 136.117188 177.101562 136.28125 177.132812 136.78125 C 177.160156 137.207031 177.636719 137.4375 178.039062 137.582031 Z M 178.039062 137.582031 " fill-opacity="1" fill-rule="nonzero"/><path fill="#000000" d="M 198.292969 90.183594 C 198.972656 90.183594 198.972656 88.828125 198.292969 88.828125 C 197.617188 88.828125 197.617188 90.183594 198.292969 90.183594 Z M 198.292969 90.183594 " fill-opacity="1" fill-rule="nonzero"/><path fill="#000000" d="M 200.144531 88.605469 C 200.941406 88.605469 200.941406 87.03125 200.144531 87.03125 C 199.34375 87.03125 199.34375 88.605469 200.144531 88.605469 Z M 200.144531 88.605469 " fill-opacity="1" fill-rule="nonzero"/><path fill="#000000" d="M 259.9375 105.789062 C 256.914062 101.453125 253.5625 97.972656 250.242188 94.355469 C 246.828125 90.84375 243.417969 87.226562 238.9375 84.378906 C 242.222656 93.457031 250.625 102.84375 259.9375 105.789062 Z M 259.9375 105.789062 " fill-opacity="1" fill-rule="nonzero"/><path fill="#000000" d="M 250.59375 79.980469 C 247.96875 78.964844 245.222656 78.976562 242.902344 80.585938 C 246.074219 84.152344 249.75 83.804688 251.972656 84.253906 C 255.199219 84.78125 258.449219 85.042969 261.792969 85.097656 C 257.230469 82.21875 253.242188 81.390625 250.59375 79.980469 Z M 250.59375 79.980469 " fill-opacity="1" fill-rule="nonzero"/><path fill="#000000" d="M 237.308594 92.445312 C 236.527344 89.902344 234.863281 88.082031 232.359375 87.492188 C 231.382812 91.894531 233.785156 94.136719 234.753906 95.972656 C 236.238281 98.515625 237.929688 100.914062 239.859375 103.246094 C 239.59375 100.1875 238.738281 97.34375 237.84375 94.570312 C 237.597656 93.851562 237.457031 93.308594 237.308594 92.445312 Z M 237.308594 92.445312 " fill-opacity="1" fill-rule="nonzero"/><path fill="#000000" d="M 198 31 C 194.558594 32.472656 192.878906 36.296875 193.964844 39.800781 C 195.054688 37.234375 198.660156 37.253906 199.746094 39.789062 C 200.425781 41.390625 199.683594 43.242188 198.085938 43.925781 C 197.890625 44.011719 197.683594 44.007812 197.480469 44.050781 C 203.554688 47.253906 210.171875 41.054688 207.507812 34.816406 C 205.9375 31.136719 201.679688 29.425781 198 31 Z M 202.300781 35.296875 C 201.691406 35.558594 200.984375 35.273438 200.722656 34.664062 C 200.460938 34.054688 200.746094 33.347656 201.355469 33.085938 C 201.964844 32.824219 202.671875 33.109375 202.933594 33.71875 C 203.195312 34.328125 202.910156 35.035156 202.300781 35.296875 Z M 203.269531 37.757812 C 202.929688 36.960938 204.132812 36.441406 204.472656 37.242188 C 204.617188 37.574219 203.609375 38.554688 203.269531 37.757812 Z M 203.269531 37.757812 " fill-opacity="1" fill-rule="nonzero"/><path fill="#000000" d="M 194.359375 27.878906 C 196.183594 26.785156 198.3125 26.207031 200.4375 26.222656 C 199.421875 26.0625 198.402344 25.902344 197.386719 25.742188 C 199.136719 25.078125 201.050781 24.578125 202.890625 24.25 C 198.386719 23.589844 193.90625 25.914062 191.882812 30.082031 C 193.324219 28.671875 195.402344 27.804688 197.414062 27.863281 C 196.414062 27.613281 195.355469 27.617188 194.359375 27.878906 Z M 194.359375 27.878906 " fill-opacity="1" fill-rule="nonzero"/><g fill="#2f323a" fill-opacity="1"><g transform="translate(13.541555, 94.060172)"><g><path d="M 37.71875 -22.3125 C 37.757812 -22.757812 37.9375 -23 38.25 -23.03125 C 38.5625 -23.070312 38.910156 -22.972656 39.296875 -22.734375 C 39.691406 -22.492188 40.03125 -22.195312 40.3125 -21.84375 C 40.59375 -21.488281 40.710938 -21.144531 40.671875 -20.8125 C 40.378906 -18.28125 39.878906 -15.796875 39.171875 -13.359375 C 38.460938 -10.921875 37.515625 -8.570312 36.328125 -6.3125 C 35.128906 -4.070312 33.769531 -1.96875 32.25 0 C 31.613281 0.820312 30.835938 1.710938 29.921875 2.671875 C 29.015625 3.640625 28.003906 4.238281 26.890625 4.46875 C 25.921875 4.6875 25.046875 4.460938 24.265625 3.796875 C 23.484375 3.128906 22.945312 2.363281 22.65625 1.5 C 22.28125 0.539062 22.15625 -0.476562 22.28125 -1.5625 C 22.414062 -2.644531 22.539062 -3.664062 22.65625 -4.625 C 22.726562 -5.257812 22.800781 -5.894531 22.875 -6.53125 C 22.945312 -7.164062 23.019531 -7.796875 23.09375 -8.421875 C 21.644531 -6.191406 20.175781 -4.070312 18.6875 -2.0625 C 16.90625 0.3125 15.03125 2.617188 13.0625 4.859375 C 12.238281 5.828125 11.378906 6.738281 10.484375 7.59375 C 9.597656 8.445312 8.539062 9.039062 7.3125 9.375 C 6.75 9.519531 6.171875 9.320312 5.578125 8.78125 C 4.984375 8.25 4.707031 7.722656 4.75 7.203125 C 4.851562 4.628906 5.367188 2.15625 6.296875 -0.21875 C 7.234375 -2.601562 8.1875 -4.945312 9.15625 -7.25 C 10.15625 -9.738281 11.164062 -12.226562 12.1875 -14.71875 C 13.207031 -17.21875 14.238281 -19.710938 15.28125 -22.203125 C 15.539062 -22.878906 15.8125 -23.539062 16.09375 -24.1875 C 16.375 -24.84375 16.644531 -25.503906 16.90625 -26.171875 C 16.976562 -26.390625 17.0625 -26.617188 17.15625 -26.859375 C 17.25 -27.109375 17.332031 -27.34375 17.40625 -27.5625 C 17.40625 -27.601562 17.40625 -27.640625 17.40625 -27.671875 C 17.40625 -27.710938 17.40625 -27.75 17.40625 -27.78125 C 17.375 -27.78125 17.335938 -27.78125 17.296875 -27.78125 C 16.847656 -27.414062 16.332031 -27.117188 15.75 -26.890625 C 15.175781 -26.671875 14.648438 -26.410156 14.171875 -26.109375 C 13.242188 -25.515625 12.332031 -24.863281 11.4375 -24.15625 C 10.28125 -23.226562 9.144531 -22.164062 8.03125 -20.96875 C 6.914062 -19.78125 6.03125 -18.476562 5.375 -17.0625 C 4.726562 -15.65625 4.476562 -14.148438 4.625 -12.546875 C 4.707031 -12.109375 4.550781 -11.878906 4.15625 -11.859375 C 3.769531 -11.835938 3.445312 -11.882812 3.1875 -12 C 2.8125 -12.1875 2.484375 -12.460938 2.203125 -12.828125 C 1.921875 -13.203125 1.742188 -13.613281 1.671875 -14.0625 C 1.484375 -15.882812 1.769531 -17.601562 2.53125 -19.21875 C 3.300781 -20.84375 4.328125 -22.332031 5.609375 -23.6875 C 6.890625 -25.039062 8.203125 -26.222656 9.546875 -27.234375 C 10.097656 -27.671875 10.753906 -28.171875 11.515625 -28.734375 C 12.285156 -29.296875 13.066406 -29.78125 13.859375 -30.1875 C 14.660156 -30.59375 15.453125 -30.832031 16.234375 -30.90625 C 17.273438 -30.976562 18.203125 -30.585938 19.015625 -29.734375 C 19.835938 -28.878906 20.285156 -27.953125 20.359375 -26.953125 C 20.441406 -26.359375 20.378906 -25.757812 20.171875 -25.15625 C 19.960938 -24.5625 19.75 -23.988281 19.53125 -23.4375 C 19.195312 -22.613281 18.859375 -21.800781 18.515625 -21 C 18.179688 -20.207031 17.847656 -19.398438 17.515625 -18.578125 C 16.890625 -17.054688 16.269531 -15.53125 15.65625 -14 C 15.039062 -12.476562 14.414062 -10.953125 13.78125 -9.421875 C 13.144531 -7.898438 12.519531 -6.382812 11.90625 -4.875 C 11.289062 -3.375 10.671875 -1.878906 10.046875 -0.390625 C 9.742188 0.429688 9.441406 1.257812 9.140625 2.09375 C 8.847656 2.925781 8.59375 3.753906 8.375 4.578125 C 8.820312 4.171875 9.25 3.734375 9.65625 3.265625 C 10.0625 2.796875 10.46875 2.320312 10.875 1.84375 C 12.664062 -0.238281 14.394531 -2.394531 16.0625 -4.625 C 19.414062 -9.125 22.46875 -13.90625 25.21875 -18.96875 C 25.332031 -19.375 25.628906 -19.523438 26.109375 -19.421875 C 26.441406 -19.347656 26.796875 -19.160156 27.171875 -18.859375 C 27.546875 -18.554688 27.820312 -18.21875 28 -17.84375 C 28.1875 -17.476562 28.207031 -17.144531 28.0625 -16.84375 C 27.507812 -14.988281 27.0625 -13.082031 26.71875 -11.125 C 26.382812 -9.175781 26.085938 -7.21875 25.828125 -5.25 C 25.722656 -4.3125 25.625 -3.378906 25.53125 -2.453125 C 25.4375 -1.523438 25.351562 -0.597656 25.28125 0.328125 C 25.238281 0.703125 25.238281 1.039062 25.28125 1.34375 C 25.28125 1.414062 25.28125 1.46875 25.28125 1.5 C 25.28125 1.46875 25.296875 1.453125 25.328125 1.453125 C 25.742188 1.117188 26.164062 0.820312 26.59375 0.5625 C 27.019531 0.300781 27.414062 -0.0351562 27.78125 -0.453125 C 29.675781 -2.304688 31.3125 -4.429688 32.6875 -6.828125 C 34.070312 -9.234375 35.179688 -11.765625 36.015625 -14.421875 C 36.847656 -17.078125 37.414062 -19.707031 37.71875 -22.3125 Z M 37.71875 -22.3125 "/></g></g></g><g fill="#2f323a" fill-opacity="1"><g transform="translate(55.827851, 94.060172)"><g><path d="M 20.921875 -7.140625 C 21.296875 -7.441406 21.695312 -7.488281 22.125 -7.28125 C 22.550781 -7.070312 22.875 -6.765625 23.09375 -6.359375 C 23.320312 -5.953125 23.269531 -5.597656 22.9375 -5.296875 C 21.632812 -4.148438 20.320312 -3.015625 19 -1.890625 C 17.675781 -0.773438 16.269531 0.207031 14.78125 1.0625 C 14.113281 1.46875 13.378906 1.847656 12.578125 2.203125 C 11.773438 2.554688 10.96875 2.675781 10.15625 2.5625 C 9.300781 2.488281 8.554688 2.15625 7.921875 1.5625 C 7.285156 0.96875 6.835938 0.257812 6.578125 -0.5625 C 6.429688 -1.082031 6.375 -1.582031 6.40625 -2.0625 C 6.445312 -2.550781 6.546875 -3.015625 6.703125 -3.453125 C 5.210938 -2.492188 3.796875 -1.390625 2.453125 -0.140625 C 1.117188 1.109375 -0.40625 2.066406 -2.125 2.734375 C -2.488281 2.878906 -2.882812 2.8125 -3.3125 2.53125 C -3.75 2.257812 -4.097656 1.898438 -4.359375 1.453125 C -4.617188 1.003906 -4.707031 0.59375 -4.625 0.21875 C -4.257812 -1.445312 -3.617188 -3.070312 -2.703125 -4.65625 C -1.796875 -6.238281 -0.65625 -7.550781 0.71875 -8.59375 C 1.84375 -9.40625 3.023438 -9.726562 4.265625 -9.5625 C 5.515625 -9.394531 6.546875 -8.789062 7.359375 -7.75 C 7.660156 -7.863281 7.960938 -7.976562 8.265625 -8.09375 C 8.628906 -8.164062 9.054688 -8.035156 9.546875 -7.703125 C 9.835938 -7.472656 10.113281 -7.203125 10.375 -6.890625 C 10.632812 -6.578125 10.785156 -6.269531 10.828125 -5.96875 C 10.859375 -5.78125 10.835938 -5.613281 10.765625 -5.46875 C 10.734375 -5.019531 10.640625 -4.59375 10.484375 -4.1875 C 10.335938 -3.78125 10.191406 -3.351562 10.046875 -2.90625 C 9.890625 -2.488281 9.773438 -2.078125 9.703125 -1.671875 C 9.628906 -1.265625 9.535156 -0.835938 9.421875 -0.390625 C 9.460938 -0.390625 9.492188 -0.390625 9.515625 -0.390625 C 9.535156 -0.390625 9.5625 -0.390625 9.59375 -0.390625 C 10.414062 -0.503906 11.363281 -0.820312 12.4375 -1.34375 C 13.519531 -1.863281 14.609375 -2.484375 15.703125 -3.203125 C 16.804688 -3.929688 17.820312 -4.648438 18.75 -5.359375 C 19.675781 -6.066406 20.398438 -6.660156 20.921875 -7.140625 Z M 0.78125 -3.40625 C 1.519531 -4 2.242188 -4.582031 2.953125 -5.15625 C 3.660156 -5.738281 4.40625 -6.269531 5.1875 -6.75 C 5.15625 -6.75 5.140625 -6.75 5.140625 -6.75 C 5.054688 -6.75 4.957031 -6.738281 4.84375 -6.71875 C 4.738281 -6.707031 4.628906 -6.679688 4.515625 -6.640625 C 4.222656 -6.566406 3.9375 -6.4375 3.65625 -6.25 C 3.375 -6.0625 3.125 -5.875 2.90625 -5.6875 C 2.488281 -5.351562 2.113281 -5 1.78125 -4.625 C 1.445312 -4.257812 1.148438 -3.890625 0.890625 -3.515625 C 0.859375 -3.472656 0.84375 -3.441406 0.84375 -3.421875 C 0.84375 -3.410156 0.820312 -3.40625 0.78125 -3.40625 Z M 0.78125 -3.40625 "/></g></g></g><g fill="#2f323a" fill-opacity="1"><g transform="translate(77.08257, 94.060172)"><g><path d="M 22.3125 -7.203125 C 22.726562 -7.390625 23.101562 -7.351562 23.4375 -7.09375 C 23.769531 -6.832031 23.960938 -6.503906 24.015625 -6.109375 C 24.078125 -5.722656 23.863281 -5.414062 23.375 -5.1875 C 21.96875 -4.476562 20.570312 -3.722656 19.1875 -2.921875 C 17.8125 -2.128906 16.4375 -1.304688 15.0625 -0.453125 C 14.25 0.0664062 13.375 0.632812 12.4375 1.25 C 11.507812 1.863281 10.546875 2.300781 9.546875 2.5625 C 8.578125 2.789062 7.726562 2.53125 7 1.78125 C 6.28125 1.039062 5.992188 0.1875 6.140625 -0.78125 C 6.210938 -1.34375 6.347656 -1.890625 6.546875 -2.421875 C 6.753906 -2.960938 6.988281 -3.515625 7.25 -4.078125 C 4.050781 -2.285156 1.265625 0.0195312 -1.109375 2.84375 C -1.410156 3.21875 -1.789062 3.265625 -2.25 2.984375 C -2.71875 2.703125 -3.117188 2.300781 -3.453125 1.78125 C -3.796875 1.257812 -3.925781 0.832031 -3.84375 0.5 C -3.476562 -0.914062 -2.976562 -2.300781 -2.34375 -3.65625 C -1.707031 -5.007812 -1.019531 -6.335938 -0.28125 -7.640625 C -0.09375 -7.972656 0.179688 -8.113281 0.546875 -8.0625 C 0.921875 -8.007812 1.296875 -7.832031 1.671875 -7.53125 C 2.046875 -7.238281 2.328125 -6.894531 2.515625 -6.5 C 2.703125 -6.113281 2.71875 -5.789062 2.5625 -5.53125 C 2.5625 -5.488281 2.550781 -5.445312 2.53125 -5.40625 C 2.519531 -5.375 2.492188 -5.335938 2.453125 -5.296875 C 4.984375 -7.046875 7.71875 -8.367188 10.65625 -9.265625 C 11.0625 -9.410156 11.488281 -9.320312 11.9375 -9 C 12.382812 -8.6875 12.726562 -8.296875 12.96875 -7.828125 C 13.207031 -7.367188 13.21875 -6.9375 13 -6.53125 C 12.519531 -5.75 12.0625 -4.957031 11.625 -4.15625 C 11.195312 -3.351562 10.78125 -2.546875 10.375 -1.734375 C 12.3125 -2.703125 14.300781 -3.628906 16.34375 -4.515625 C 18.394531 -5.410156 20.382812 -6.304688 22.3125 -7.203125 Z M 22.3125 -7.203125 "/></g></g></g><g fill="#2f323a" fill-opacity="1"><g transform="translate(99.564598, 94.060172)"><g><path d="M 22.09375 -31.921875 C 22.582031 -31.765625 23.039062 -31.441406 23.46875 -30.953125 C 23.894531 -30.472656 24.070312 -30.03125 24 -29.625 C 24 -29.550781 23.976562 -29.476562 23.9375 -29.40625 C 21.070312 -23.789062 18.300781 -18.144531 15.625 -12.46875 C 12.945312 -6.800781 10.582031 -0.988281 8.53125 4.96875 C 8.425781 5.34375 8.195312 5.5 7.84375 5.4375 C 7.488281 5.382812 7.125 5.21875 6.75 4.9375 C 6.375 4.65625 6.078125 4.316406 5.859375 3.921875 C 5.640625 3.535156 5.582031 3.175781 5.6875 2.84375 C 6.101562 1.65625 6.523438 0.457031 6.953125 -0.75 C 7.378906 -1.957031 7.832031 -3.140625 8.3125 -4.296875 C 6.894531 -2.804688 5.359375 -1.445312 3.703125 -0.21875 C 2.054688 1.007812 0.207031 1.992188 -1.84375 2.734375 C -2.21875 2.878906 -2.617188 2.8125 -3.046875 2.53125 C -3.472656 2.257812 -3.804688 1.898438 -4.046875 1.453125 C -4.285156 1.003906 -4.367188 0.59375 -4.296875 0.21875 C -3.921875 -1.445312 -3.285156 -3.070312 -2.390625 -4.65625 C -1.503906 -6.238281 -0.375 -7.550781 1 -8.59375 C 1.96875 -9.332031 3.007812 -9.675781 4.125 -9.625 C 5.238281 -9.570312 6.207031 -9.171875 7.03125 -8.421875 C 7.25 -8.679688 7.453125 -8.925781 7.640625 -9.15625 C 10.316406 -12.570312 12.734375 -16.1875 14.890625 -20 C 17.054688 -23.8125 19.101562 -27.65625 21.03125 -31.53125 C 21.070312 -31.5625 21.09375 -31.597656 21.09375 -31.640625 C 21.238281 -31.859375 21.460938 -31.96875 21.765625 -31.96875 C 21.867188 -31.96875 21.976562 -31.953125 22.09375 -31.921875 Z M 0.21875 -2.015625 C 1.226562 -2.640625 2.175781 -3.351562 3.0625 -4.15625 C 3.957031 -4.957031 4.816406 -5.804688 5.640625 -6.703125 C 5.566406 -6.734375 5.507812 -6.75 5.46875 -6.75 C 5.351562 -6.75 5.238281 -6.738281 5.125 -6.71875 C 5.019531 -6.707031 4.910156 -6.679688 4.796875 -6.640625 C 4.503906 -6.566406 4.21875 -6.4375 3.9375 -6.25 C 3.65625 -6.0625 3.40625 -5.875 3.1875 -5.6875 C 2.8125 -5.351562 2.457031 -5 2.125 -4.625 C 1.789062 -4.257812 1.472656 -3.890625 1.171875 -3.515625 C 0.835938 -3.035156 0.519531 -2.535156 0.21875 -2.015625 Z M 0.21875 -2.015625 "/></g></g></g><g fill="#2f323a" fill-opacity="1"><g transform="translate(117.527912, 94.060172)"><g><path d="M 14.5 -6.96875 C 14.875 -7.269531 15.285156 -7.316406 15.734375 -7.109375 C 16.179688 -6.910156 16.5 -6.601562 16.6875 -6.1875 C 16.875 -5.78125 16.78125 -5.46875 16.40625 -5.25 C 14.207031 -3.789062 11.945312 -2.316406 9.625 -0.828125 C 7.300781 0.648438 4.894531 1.835938 2.40625 2.734375 C 1.46875 3.066406 0.554688 3.203125 -0.328125 3.140625 C -1.222656 3.085938 -2.003906 2.632812 -2.671875 1.78125 C -3.347656 0.894531 -3.582031 -0.09375 -3.375 -1.1875 C -3.164062 -2.289062 -2.742188 -3.34375 -2.109375 -4.34375 C -1.484375 -5.351562 -0.851562 -6.191406 -0.21875 -6.859375 C 0.332031 -7.492188 1 -8.070312 1.78125 -8.59375 C 2.5625 -9.113281 3.367188 -9.410156 4.203125 -9.484375 C 5.046875 -9.554688 5.820312 -9.203125 6.53125 -8.421875 C 7.164062 -7.796875 7.425781 -7.164062 7.3125 -6.53125 C 7.195312 -5.894531 6.847656 -5.304688 6.265625 -4.765625 C 5.691406 -4.234375 5.015625 -3.742188 4.234375 -3.296875 C 3.453125 -2.847656 2.695312 -2.457031 1.96875 -2.125 C 1.25 -1.789062 0.6875 -1.507812 0.28125 -1.28125 C 0.09375 -0.875 -0.0546875 -0.46875 -0.171875 -0.0625 C 0.648438 -0.164062 1.710938 -0.457031 3.015625 -0.9375 C 4.316406 -1.425781 5.703125 -2.023438 7.171875 -2.734375 C 8.640625 -3.441406 10.023438 -4.164062 11.328125 -4.90625 C 12.628906 -5.65625 13.6875 -6.34375 14.5 -6.96875 Z M 14.5 -6.96875 "/></g></g></g><g fill="#2f323a" fill-opacity="1"><g transform="translate(132.311384, 94.060172)"><g><path d="M 10.328125 -7.3125 C 10.503906 -7.007812 10.566406 -6.703125 10.515625 -6.390625 C 10.460938 -6.078125 10.226562 -5.898438 9.8125 -5.859375 C 9.519531 -5.859375 9.242188 -5.941406 8.984375 -6.109375 C 8.722656 -6.273438 8.484375 -6.488281 8.265625 -6.75 C 7.890625 -6.75 7.382812 -6.523438 6.75 -6.078125 C 6.113281 -5.628906 5.6875 -5.332031 5.46875 -5.1875 C 5.0625 -4.894531 4.671875 -4.570312 4.296875 -4.21875 C 3.921875 -3.863281 3.550781 -3.5 3.1875 -3.125 C 1.582031 -1.414062 0.316406 0.441406 -0.609375 2.453125 C -0.835938 2.941406 -1.210938 3.070312 -1.734375 2.84375 C -2.253906 2.625 -2.707031 2.253906 -3.09375 1.734375 C -3.488281 1.210938 -3.609375 0.765625 -3.453125 0.390625 C -2.859375 -1.285156 -2.234375 -2.929688 -1.578125 -4.546875 C -0.929688 -6.160156 -0.3125 -7.804688 0.28125 -9.484375 C 0.425781 -9.859375 0.703125 -10 1.109375 -9.90625 C 1.523438 -9.8125 1.9375 -9.578125 2.34375 -9.203125 C 2.75 -8.835938 3.03125 -8.445312 3.1875 -8.03125 C 4.445312 -9 5.71875 -9.53125 7 -9.625 C 8.28125 -9.71875 9.390625 -8.945312 10.328125 -7.3125 Z M 10.328125 -7.3125 "/></g></g></g><g fill="#2f323a" fill-opacity="1"><g transform="translate(145.867548, 94.060172)"><g><path d="M 10.546875 -6.921875 C 10.878906 -7.210938 11.257812 -7.273438 11.6875 -7.109375 C 12.113281 -6.941406 12.421875 -6.660156 12.609375 -6.265625 C 12.796875 -5.878906 12.722656 -5.539062 12.390625 -5.25 C 11.492188 -4.5 10.570312 -3.757812 9.625 -3.03125 C 8.675781 -2.3125 7.71875 -1.617188 6.75 -0.953125 C 5.9375 -0.429688 5.082031 0.101562 4.1875 0.65625 C 3.289062 1.21875 2.378906 1.613281 1.453125 1.84375 C 0.703125 1.957031 0.00390625 1.84375 -0.640625 1.5 C -1.296875 1.164062 -1.828125 0.691406 -2.234375 0.078125 C -2.640625 -0.535156 -2.84375 -1.210938 -2.84375 -1.953125 C -2.882812 -3.179688 -2.550781 -4.453125 -1.84375 -5.765625 C -1.132812 -7.085938 -0.484375 -8.269531 0.109375 -9.3125 C 0.335938 -9.644531 0.632812 -9.773438 1 -9.703125 C 1.375 -9.628906 1.742188 -9.441406 2.109375 -9.140625 C 2.484375 -8.847656 2.765625 -8.515625 2.953125 -8.140625 C 3.140625 -7.773438 3.160156 -7.460938 3.015625 -7.203125 C 2.523438 -6.378906 2.078125 -5.546875 1.671875 -4.703125 C 1.265625 -3.867188 0.894531 -3.023438 0.5625 -2.171875 C 0.488281 -1.953125 0.394531 -1.710938 0.28125 -1.453125 C 1.0625 -1.566406 2.082031 -1.921875 3.34375 -2.515625 C 4.613281 -3.109375 5.90625 -3.800781 7.21875 -4.59375 C 8.539062 -5.394531 9.648438 -6.171875 10.546875 -6.921875 Z M 5.53125 -12.71875 C 5.300781 -12.269531 4.914062 -12.15625 4.375 -12.375 C 3.84375 -12.601562 3.367188 -12.96875 2.953125 -13.46875 C 2.546875 -13.976562 2.4375 -14.4375 2.625 -14.84375 C 2.957031 -15.507812 3.195312 -16 3.34375 -16.3125 C 3.5 -16.632812 3.578125 -16.796875 3.578125 -16.796875 C 3.796875 -17.128906 4.085938 -17.265625 4.453125 -17.203125 C 4.828125 -17.148438 5.191406 -16.972656 5.546875 -16.671875 C 5.898438 -16.378906 6.179688 -16.046875 6.390625 -15.671875 C 6.597656 -15.304688 6.625 -14.972656 6.46875 -14.671875 C 6.46875 -14.671875 6.410156 -14.550781 6.296875 -14.3125 C 6.191406 -14.070312 5.9375 -13.539062 5.53125 -12.71875 Z M 5.53125 -12.71875 "/></g></g></g><g fill="#2f323a" fill-opacity="1"><g transform="translate(156.801732, 94.060172)"><g><path d="M 22.3125 -7.203125 C 22.726562 -7.390625 23.101562 -7.351562 23.4375 -7.09375 C 23.769531 -6.832031 23.960938 -6.503906 24.015625 -6.109375 C 24.078125 -5.722656 23.863281 -5.414062 23.375 -5.1875 C 21.96875 -4.476562 20.570312 -3.722656 19.1875 -2.921875 C 17.8125 -2.128906 16.4375 -1.304688 15.0625 -0.453125 C 14.25 0.0664062 13.375 0.632812 12.4375 1.25 C 11.507812 1.863281 10.546875 2.300781 9.546875 2.5625 C 8.578125 2.789062 7.726562 2.53125 7 1.78125 C 6.28125 1.039062 5.992188 0.1875 6.140625 -0.78125 C 6.210938 -1.34375 6.347656 -1.890625 6.546875 -2.421875 C 6.753906 -2.960938 6.988281 -3.515625 7.25 -4.078125 C 4.050781 -2.285156 1.265625 0.0195312 -1.109375 2.84375 C -1.410156 3.21875 -1.789062 3.265625 -2.25 2.984375 C -2.71875 2.703125 -3.117188 2.300781 -3.453125 1.78125 C -3.796875 1.257812 -3.925781 0.832031 -3.84375 0.5 C -3.476562 -0.914062 -2.976562 -2.300781 -2.34375 -3.65625 C -1.707031 -5.007812 -1.019531 -6.335938 -0.28125 -7.640625 C -0.09375 -7.972656 0.179688 -8.113281 0.546875 -8.0625 C 0.921875 -8.007812 1.296875 -7.832031 1.671875 -7.53125 C 2.046875 -7.238281 2.328125 -6.894531 2.515625 -6.5 C 2.703125 -6.113281 2.71875 -5.789062 2.5625 -5.53125 C 2.5625 -5.488281 2.550781 -5.445312 2.53125 -5.40625 C 2.519531 -5.375 2.492188 -5.335938 2.453125 -5.296875 C 4.984375 -7.046875 7.71875 -8.367188 10.65625 -9.265625 C 11.0625 -9.410156 11.488281 -9.320312 11.9375 -9 C 12.382812 -8.6875 12.726562 -8.296875 12.96875 -7.828125 C 13.207031 -7.367188 13.21875 -6.9375 13 -6.53125 C 12.519531 -5.75 12.0625 -4.957031 11.625 -4.15625 C 11.195312 -3.351562 10.78125 -2.546875 10.375 -1.734375 C 12.3125 -2.703125 14.300781 -3.628906 16.34375 -4.515625 C 18.394531 -5.410156 20.382812 -6.304688 22.3125 -7.203125 Z M 22.3125 -7.203125 "/></g></g></g><g fill="#2f323a" fill-opacity="1"><g transform="translate(179.283759, 94.060172)"><g><path d="M 19.140625 -7.640625 C 19.546875 -7.828125 19.941406 -7.742188 20.328125 -7.390625 C 20.722656 -7.035156 20.976562 -6.613281 21.09375 -6.125 C 21.207031 -5.644531 21.019531 -5.296875 20.53125 -5.078125 C 18.257812 -4.078125 16.082031 -2.894531 14 -1.53125 C 11.914062 -0.175781 9.984375 1.335938 8.203125 3.015625 C 5.671875 10.234375 2.785156 17.242188 -0.453125 24.046875 C -0.671875 24.535156 -0.992188 24.6875 -1.421875 24.5 C -1.847656 24.3125 -2.25 24.003906 -2.625 23.578125 C -3 23.148438 -3.222656 22.820312 -3.296875 22.59375 C -4.078125 20.550781 -4.296875 18.488281 -3.953125 16.40625 C -3.617188 14.320312 -2.941406 12.300781 -1.921875 10.34375 C -0.898438 8.394531 0.222656 6.617188 1.453125 5.015625 C 2.640625 3.492188 3.957031 2.023438 5.40625 0.609375 C 5.820312 -0.503906 6.234375 -1.675781 6.640625 -2.90625 C 5.265625 -1.96875 3.941406 -0.953125 2.671875 0.140625 C 1.410156 1.234375 -0.0195312 2.097656 -1.625 2.734375 C -1.988281 2.878906 -2.375 2.8125 -2.78125 2.53125 C -3.195312 2.257812 -3.535156 1.898438 -3.796875 1.453125 C -4.054688 1.003906 -4.148438 0.59375 -4.078125 0.21875 C -3.703125 -1.445312 -3.066406 -3.070312 -2.171875 -4.65625 C -1.285156 -6.238281 -0.148438 -7.550781 1.234375 -8.59375 C 2.378906 -9.445312 3.601562 -9.769531 4.90625 -9.5625 C 6.207031 -9.363281 7.25 -8.6875 8.03125 -7.53125 C 8.1875 -7.570312 8.316406 -7.609375 8.421875 -7.640625 C 8.796875 -7.753906 9.195312 -7.679688 9.625 -7.421875 C 10.050781 -7.160156 10.40625 -6.816406 10.6875 -6.390625 C 10.96875 -5.960938 11.050781 -5.546875 10.9375 -5.140625 C 10.820312 -4.878906 10.71875 -4.597656 10.625 -4.296875 C 10.53125 -3.992188 10.445312 -3.695312 10.375 -3.40625 C 11.976562 -4.300781 13.484375 -5.070312 14.890625 -5.71875 C 16.304688 -6.375 17.722656 -7.015625 19.140625 -7.640625 Z M 1.28125 -3.296875 C 2.03125 -3.921875 2.785156 -4.53125 3.546875 -5.125 C 4.304688 -5.726562 5.113281 -6.253906 5.96875 -6.703125 C 5.894531 -6.703125 5.800781 -6.71875 5.6875 -6.75 C 5.582031 -6.75 5.472656 -6.738281 5.359375 -6.71875 C 5.242188 -6.707031 5.128906 -6.679688 5.015625 -6.640625 C 4.722656 -6.566406 4.4375 -6.4375 4.15625 -6.25 C 3.875 -6.0625 3.625 -5.875 3.40625 -5.6875 C 3.03125 -5.351562 2.675781 -5 2.34375 -4.625 C 2.007812 -4.257812 1.691406 -3.890625 1.390625 -3.515625 C 1.359375 -3.472656 1.332031 -3.429688 1.3125 -3.390625 C 1.289062 -3.359375 1.28125 -3.328125 1.28125 -3.296875 Z M -0.328125 15.28125 C -0.148438 14.84375 0.0390625 14.398438 0.25 13.953125 C 0.457031 13.503906 0.65625 13.054688 0.84375 12.609375 C 0.351562 13.535156 -0.0351562 14.425781 -0.328125 15.28125 Z M -0.328125 15.28125 "/></g></g></g><g fill="#2f323a" fill-opacity="1"><g transform="translate(217.660341, 114.773706)"><g><path d="M 14 6.46875 C 14 6.914062 13.847656 7.148438 13.546875 7.171875 C 13.253906 7.191406 12.910156 7.078125 12.515625 6.828125 C 12.128906 6.585938 11.785156 6.289062 11.484375 5.9375 C 11.191406 5.582031 11.046875 5.257812 11.046875 4.96875 C 11.117188 0.207031 11.832031 -4.421875 13.1875 -8.921875 C 14.550781 -13.421875 16.515625 -17.664062 19.078125 -21.65625 C 19.234375 -21.945312 19.484375 -22.035156 19.828125 -21.921875 C 20.179688 -21.816406 20.535156 -21.59375 20.890625 -21.25 C 21.242188 -20.914062 21.503906 -20.546875 21.671875 -20.140625 C 21.835938 -19.734375 21.832031 -19.378906 21.65625 -19.078125 C 19.226562 -15.285156 17.363281 -11.210938 16.0625 -6.859375 C 14.757812 -2.503906 14.070312 1.9375 14 6.46875 Z M 41.796875 -29.515625 C 43.054688 -28.253906 43.734375 -26.960938 43.828125 -25.640625 C 43.921875 -24.316406 43.648438 -23.003906 43.015625 -21.703125 C 42.390625 -20.398438 41.554688 -19.179688 40.515625 -18.046875 C 39.472656 -16.910156 38.445312 -15.914062 37.4375 -15.0625 C 34.195312 -12.3125 30.550781 -10.210938 26.5 -8.765625 C 27.132812 -8.460938 27.691406 -8.125 28.171875 -7.75 C 29.703125 -6.601562 30.671875 -5.144531 31.078125 -3.375 C 31.484375 -1.601562 31.222656 0.113281 30.296875 1.78125 C 29.628906 2.9375 28.753906 3.976562 27.671875 4.90625 C 26.597656 5.84375 25.4375 6.671875 24.1875 7.390625 C 22.9375 8.117188 21.71875 8.757812 20.53125 9.3125 C 18.675781 10.207031 16.75 10.773438 14.75 11.015625 C 12.757812 11.253906 10.816406 10.851562 8.921875 9.8125 C 8.585938 9.664062 8.242188 9.394531 7.890625 9 C 7.535156 8.613281 7.378906 8.21875 7.421875 7.8125 C 7.460938 7.40625 7.640625 7.171875 7.953125 7.109375 C 8.265625 7.054688 8.570312 7.125 8.875 7.3125 C 10.363281 8.09375 11.925781 8.320312 13.5625 8 C 15.195312 7.6875 16.738281 7.195312 18.1875 6.53125 C 19.5625 5.894531 20.925781 5.15625 22.28125 4.3125 C 23.644531 3.476562 24.867188 2.523438 25.953125 1.453125 C 26.503906 0.929688 27.039062 0.207031 27.5625 -0.71875 C 28.082031 -1.65625 28.367188 -2.601562 28.421875 -3.5625 C 28.484375 -4.53125 28.066406 -5.316406 27.171875 -5.921875 C 26.203125 -6.546875 25.054688 -6.914062 23.734375 -7.03125 C 22.421875 -7.144531 21.207031 -7.179688 20.09375 -7.140625 C 19.863281 -7.140625 19.570312 -7.28125 19.21875 -7.5625 C 18.863281 -7.84375 18.546875 -8.164062 18.265625 -8.53125 C 17.992188 -8.90625 17.835938 -9.238281 17.796875 -9.53125 C 17.765625 -9.832031 17.929688 -10.019531 18.296875 -10.09375 C 21.347656 -10.582031 24.285156 -11.457031 27.109375 -12.71875 C 29.941406 -13.988281 32.53125 -15.625 34.875 -17.625 C 35.351562 -18.039062 35.984375 -18.644531 36.765625 -19.4375 C 37.546875 -20.238281 38.300781 -21.125 39.03125 -22.09375 C 39.757812 -23.0625 40.304688 -24.007812 40.671875 -24.9375 C 41.046875 -25.875 41.070312 -26.703125 40.75 -27.421875 C 40.4375 -28.148438 39.628906 -28.644531 38.328125 -28.90625 C 36.765625 -29.238281 35.15625 -29.300781 33.5 -29.09375 C 31.84375 -28.894531 30.195312 -28.550781 28.5625 -28.0625 C 26.925781 -27.582031 25.40625 -27.097656 24 -26.609375 C 21.6875 -25.796875 19.421875 -24.859375 17.203125 -23.796875 C 14.992188 -22.734375 12.882812 -21.515625 10.875 -20.140625 C 10.09375 -19.585938 9.238281 -18.945312 8.3125 -18.21875 C 7.382812 -17.488281 6.554688 -16.664062 5.828125 -15.75 C 5.109375 -14.84375 4.691406 -13.867188 4.578125 -12.828125 C 4.535156 -12.378906 4.359375 -12.132812 4.046875 -12.09375 C 3.734375 -12.0625 3.378906 -12.164062 2.984375 -12.40625 C 2.597656 -12.65625 2.265625 -12.957031 1.984375 -13.3125 C 1.703125 -13.664062 1.582031 -14.007812 1.625 -14.34375 C 1.800781 -15.863281 2.382812 -17.238281 3.375 -18.46875 C 4.363281 -19.695312 5.523438 -20.785156 6.859375 -21.734375 C 8.203125 -22.679688 9.46875 -23.523438 10.65625 -24.265625 C 13.1875 -25.796875 15.835938 -27.128906 18.609375 -28.265625 C 21.378906 -29.398438 24.195312 -30.300781 27.0625 -30.96875 C 28.625 -31.375 30.296875 -31.695312 32.078125 -31.9375 C 33.867188 -32.1875 35.617188 -32.160156 37.328125 -31.859375 C 39.035156 -31.554688 40.523438 -30.773438 41.796875 -29.515625 Z M 41.796875 -29.515625 "/></g></g></g><g fill="#2f323a" fill-opacity="1"><g transform="translate(254.981629, 114.773706)"><g><path d="M 20.921875 -7.140625 C 21.296875 -7.441406 21.695312 -7.488281 22.125 -7.28125 C 22.550781 -7.070312 22.875 -6.765625 23.09375 -6.359375 C 23.320312 -5.953125 23.269531 -5.597656 22.9375 -5.296875 C 21.632812 -4.148438 20.320312 -3.015625 19 -1.890625 C 17.675781 -0.773438 16.269531 0.207031 14.78125 1.0625 C 14.113281 1.46875 13.378906 1.847656 12.578125 2.203125 C 11.773438 2.554688 10.96875 2.675781 10.15625 2.5625 C 9.300781 2.488281 8.554688 2.15625 7.921875 1.5625 C 7.285156 0.96875 6.835938 0.257812 6.578125 -0.5625 C 6.429688 -1.082031 6.375 -1.582031 6.40625 -2.0625 C 6.445312 -2.550781 6.546875 -3.015625 6.703125 -3.453125 C 5.210938 -2.492188 3.796875 -1.390625 2.453125 -0.140625 C 1.117188 1.109375 -0.40625 2.066406 -2.125 2.734375 C -2.488281 2.878906 -2.882812 2.8125 -3.3125 2.53125 C -3.75 2.257812 -4.097656 1.898438 -4.359375 1.453125 C -4.617188 1.003906 -4.707031 0.59375 -4.625 0.21875 C -4.257812 -1.445312 -3.617188 -3.070312 -2.703125 -4.65625 C -1.796875 -6.238281 -0.65625 -7.550781 0.71875 -8.59375 C 1.84375 -9.40625 3.023438 -9.726562 4.265625 -9.5625 C 5.515625 -9.394531 6.546875 -8.789062 7.359375 -7.75 C 7.660156 -7.863281 7.960938 -7.976562 8.265625 -8.09375 C 8.628906 -8.164062 9.054688 -8.035156 9.546875 -7.703125 C 9.835938 -7.472656 10.113281 -7.203125 10.375 -6.890625 C 10.632812 -6.578125 10.785156 -6.269531 10.828125 -5.96875 C 10.859375 -5.78125 10.835938 -5.613281 10.765625 -5.46875 C 10.734375 -5.019531 10.640625 -4.59375 10.484375 -4.1875 C 10.335938 -3.78125 10.191406 -3.351562 10.046875 -2.90625 C 9.890625 -2.488281 9.773438 -2.078125 9.703125 -1.671875 C 9.628906 -1.265625 9.535156 -0.835938 9.421875 -0.390625 C 9.460938 -0.390625 9.492188 -0.390625 9.515625 -0.390625 C 9.535156 -0.390625 9.5625 -0.390625 9.59375 -0.390625 C 10.414062 -0.503906 11.363281 -0.820312 12.4375 -1.34375 C 13.519531 -1.863281 14.609375 -2.484375 15.703125 -3.203125 C 16.804688 -3.929688 17.820312 -4.648438 18.75 -5.359375 C 19.675781 -6.066406 20.398438 -6.660156 20.921875 -7.140625 Z M 0.78125 -3.40625 C 1.519531 -4 2.242188 -4.582031 2.953125 -5.15625 C 3.660156 -5.738281 4.40625 -6.269531 5.1875 -6.75 C 5.15625 -6.75 5.140625 -6.75 5.140625 -6.75 C 5.054688 -6.75 4.957031 -6.738281 4.84375 -6.71875 C 4.738281 -6.707031 4.628906 -6.679688 4.515625 -6.640625 C 4.222656 -6.566406 3.9375 -6.4375 3.65625 -6.25 C 3.375 -6.0625 3.125 -5.875 2.90625 -5.6875 C 2.488281 -5.351562 2.113281 -5 1.78125 -4.625 C 1.445312 -4.257812 1.148438 -3.890625 0.890625 -3.515625 C 0.859375 -3.472656 0.84375 -3.441406 0.84375 -3.421875 C 0.84375 -3.410156 0.820312 -3.40625 0.78125 -3.40625 Z M 0.78125 -3.40625 "/></g></g></g><g fill="#2f323a" fill-opacity="1"><g transform="translate(276.236348, 114.773706)"><g><path d="M 10.328125 -7.3125 C 10.503906 -7.007812 10.566406 -6.703125 10.515625 -6.390625 C 10.460938 -6.078125 10.226562 -5.898438 9.8125 -5.859375 C 9.519531 -5.859375 9.242188 -5.941406 8.984375 -6.109375 C 8.722656 -6.273438 8.484375 -6.488281 8.265625 -6.75 C 7.890625 -6.75 7.382812 -6.523438 6.75 -6.078125 C 6.113281 -5.628906 5.6875 -5.332031 5.46875 -5.1875 C 5.0625 -4.894531 4.671875 -4.570312 4.296875 -4.21875 C 3.921875 -3.863281 3.550781 -3.5 3.1875 -3.125 C 1.582031 -1.414062 0.316406 0.441406 -0.609375 2.453125 C -0.835938 2.941406 -1.210938 3.070312 -1.734375 2.84375 C -2.253906 2.625 -2.707031 2.253906 -3.09375 1.734375 C -3.488281 1.210938 -3.609375 0.765625 -3.453125 0.390625 C -2.859375 -1.285156 -2.234375 -2.929688 -1.578125 -4.546875 C -0.929688 -6.160156 -0.3125 -7.804688 0.28125 -9.484375 C 0.425781 -9.859375 0.703125 -10 1.109375 -9.90625 C 1.523438 -9.8125 1.9375 -9.578125 2.34375 -9.203125 C 2.75 -8.835938 3.03125 -8.445312 3.1875 -8.03125 C 4.445312 -9 5.71875 -9.53125 7 -9.625 C 8.28125 -9.71875 9.390625 -8.945312 10.328125 -7.3125 Z M 10.328125 -7.3125 "/></g></g></g><g fill="#2f323a" fill-opacity="1"><g transform="translate(289.792512, 114.773706)"><g><path d="M 27.734375 -21.421875 C 28.066406 -21.234375 28.410156 -20.941406 28.765625 -20.546875 C 29.117188 -20.160156 29.273438 -19.765625 29.234375 -19.359375 C 29.203125 -18.953125 29.035156 -18.71875 28.734375 -18.65625 C 28.429688 -18.601562 28.113281 -18.671875 27.78125 -18.859375 C 26.332031 -19.597656 24.804688 -20.097656 23.203125 -20.359375 C 21.609375 -20.617188 20.007812 -20.804688 18.40625 -20.921875 C 15.25 -21.109375 12.070312 -21.179688 8.875 -21.140625 C 8.832031 -21.140625 8.789062 -21.140625 8.75 -21.140625 C 8.71875 -21.140625 8.703125 -21.140625 8.703125 -21.140625 C 7.066406 -17.535156 5.566406 -13.875 4.203125 -10.15625 C 2.847656 -6.4375 1.769531 -2.660156 0.96875 1.171875 C 0.175781 5.003906 -0.179688 8.910156 -0.109375 12.890625 C -0.109375 13.335938 -0.253906 13.578125 -0.546875 13.609375 C -0.847656 13.648438 -1.191406 13.546875 -1.578125 13.296875 C -1.972656 13.054688 -2.316406 12.757812 -2.609375 12.40625 C -2.910156 12.0625 -3.0625 11.71875 -3.0625 11.375 C -3.175781 5.726562 -2.453125 0.207031 -0.890625 -5.1875 C 0.671875 -10.582031 2.566406 -15.847656 4.796875 -20.984375 C -0.554688 -20.679688 -5.859375 -20.03125 -11.109375 -19.03125 C -11.441406 -18.957031 -11.800781 -19.050781 -12.1875 -19.3125 C -12.582031 -19.570312 -12.914062 -19.882812 -13.1875 -20.25 C -13.46875 -20.625 -13.625 -20.976562 -13.65625 -21.3125 C -13.695312 -21.644531 -13.550781 -21.847656 -13.21875 -21.921875 C -10.019531 -22.523438 -6.800781 -23.007812 -3.5625 -23.375 C -0.332031 -23.75 2.914062 -23.972656 6.1875 -24.046875 C 6.789062 -25.347656 7.390625 -26.640625 7.984375 -27.921875 C 8.578125 -29.203125 9.1875 -30.476562 9.8125 -31.75 C 9.96875 -32.082031 10.226562 -32.21875 10.59375 -32.15625 C 10.96875 -32.101562 11.34375 -31.925781 11.71875 -31.625 C 12.09375 -31.332031 12.378906 -31 12.578125 -30.625 C 12.785156 -30.257812 12.816406 -29.925781 12.671875 -29.625 C 12.222656 -28.695312 11.785156 -27.773438 11.359375 -26.859375 C 10.929688 -25.953125 10.492188 -25.050781 10.046875 -24.15625 C 12.015625 -24.15625 14.03125 -24.117188 16.09375 -24.046875 C 18.15625 -23.972656 20.179688 -23.738281 22.171875 -23.34375 C 24.171875 -22.957031 26.023438 -22.316406 27.734375 -21.421875 Z M 27.734375 -21.421875 "/></g></g></g><g fill="#2f323a" fill-opacity="1"><g transform="translate(297.491079, 114.773706)"><g><path d="M 14.5 -6.96875 C 14.875 -7.269531 15.285156 -7.316406 15.734375 -7.109375 C 16.179688 -6.910156 16.5 -6.601562 16.6875 -6.1875 C 16.875 -5.78125 16.78125 -5.46875 16.40625 -5.25 C 14.207031 -3.789062 11.945312 -2.316406 9.625 -0.828125 C 7.300781 0.648438 4.894531 1.835938 2.40625 2.734375 C 1.46875 3.066406 0.554688 3.203125 -0.328125 3.140625 C -1.222656 3.085938 -2.003906 2.632812 -2.671875 1.78125 C -3.347656 0.894531 -3.582031 -0.09375 -3.375 -1.1875 C -3.164062 -2.289062 -2.742188 -3.34375 -2.109375 -4.34375 C -1.484375 -5.351562 -0.851562 -6.191406 -0.21875 -6.859375 C 0.332031 -7.492188 1 -8.070312 1.78125 -8.59375 C 2.5625 -9.113281 3.367188 -9.410156 4.203125 -9.484375 C 5.046875 -9.554688 5.820312 -9.203125 6.53125 -8.421875 C 7.164062 -7.796875 7.425781 -7.164062 7.3125 -6.53125 C 7.195312 -5.894531 6.847656 -5.304688 6.265625 -4.765625 C 5.691406 -4.234375 5.015625 -3.742188 4.234375 -3.296875 C 3.453125 -2.847656 2.695312 -2.457031 1.96875 -2.125 C 1.25 -1.789062 0.6875 -1.507812 0.28125 -1.28125 C 0.09375 -0.875 -0.0546875 -0.46875 -0.171875 -0.0625 C 0.648438 -0.164062 1.710938 -0.457031 3.015625 -0.9375 C 4.316406 -1.425781 5.703125 -2.023438 7.171875 -2.734375 C 8.640625 -3.441406 10.023438 -4.164062 11.328125 -4.90625 C 12.628906 -5.65625 13.6875 -6.34375 14.5 -6.96875 Z M 14.5 -6.96875 "/></g></g></g><g fill="#2f323a" fill-opacity="1"><g transform="translate(312.274551, 114.773706)"><g><path d="M 22.3125 -7.203125 C 22.726562 -7.390625 23.101562 -7.351562 23.4375 -7.09375 C 23.769531 -6.832031 23.960938 -6.503906 24.015625 -6.109375 C 24.078125 -5.722656 23.863281 -5.414062 23.375 -5.1875 C 21.96875 -4.476562 20.570312 -3.722656 19.1875 -2.921875 C 17.8125 -2.128906 16.4375 -1.304688 15.0625 -0.453125 C 14.25 0.0664062 13.375 0.632812 12.4375 1.25 C 11.507812 1.863281 10.546875 2.300781 9.546875 2.5625 C 8.578125 2.789062 7.726562 2.53125 7 1.78125 C 6.28125 1.039062 5.992188 0.1875 6.140625 -0.78125 C 6.210938 -1.34375 6.347656 -1.890625 6.546875 -2.421875 C 6.753906 -2.960938 6.988281 -3.515625 7.25 -4.078125 C 4.050781 -2.285156 1.265625 0.0195312 -1.109375 2.84375 C -1.410156 3.21875 -1.789062 3.265625 -2.25 2.984375 C -2.71875 2.703125 -3.117188 2.300781 -3.453125 1.78125 C -3.796875 1.257812 -3.925781 0.832031 -3.84375 0.5 C -3.476562 -0.914062 -2.976562 -2.300781 -2.34375 -3.65625 C -1.707031 -5.007812 -1.019531 -6.335938 -0.28125 -7.640625 C -0.09375 -7.972656 0.179688 -8.113281 0.546875 -8.0625 C 0.921875 -8.007812 1.296875 -7.832031 1.671875 -7.53125 C 2.046875 -7.238281 2.328125 -6.894531 2.515625 -6.5 C 2.703125 -6.113281 2.71875 -5.789062 2.5625 -5.53125 C 2.5625 -5.488281 2.550781 -5.445312 2.53125 -5.40625 C 2.519531 -5.375 2.492188 -5.335938 2.453125 -5.296875 C 4.984375 -7.046875 7.71875 -8.367188 10.65625 -9.265625 C 11.0625 -9.410156 11.488281 -9.320312 11.9375 -9 C 12.382812 -8.6875 12.726562 -8.296875 12.96875 -7.828125 C 13.207031 -7.367188 13.21875 -6.9375 13 -6.53125 C 12.519531 -5.75 12.0625 -4.957031 11.625 -4.15625 C 11.195312 -3.351562 10.78125 -2.546875 10.375 -1.734375 C 12.3125 -2.703125 14.300781 -3.628906 16.34375 -4.515625 C 18.394531 -5.410156 20.382812 -6.304688 22.3125 -7.203125 Z M 22.3125 -7.203125 "/></g></g></g><g fill="#2f323a" fill-opacity="1"><g transform="translate(334.756579, 114.773706)"><g><path d="M 22.09375 -31.921875 C 22.582031 -31.765625 23.039062 -31.441406 23.46875 -30.953125 C 23.894531 -30.472656 24.070312 -30.03125 24 -29.625 C 24 -29.550781 23.976562 -29.476562 23.9375 -29.40625 C 21.070312 -23.789062 18.300781 -18.144531 15.625 -12.46875 C 12.945312 -6.800781 10.582031 -0.988281 8.53125 4.96875 C 8.425781 5.34375 8.195312 5.5 7.84375 5.4375 C 7.488281 5.382812 7.125 5.21875 6.75 4.9375 C 6.375 4.65625 6.078125 4.316406 5.859375 3.921875 C 5.640625 3.535156 5.582031 3.175781 5.6875 2.84375 C 6.101562 1.65625 6.523438 0.457031 6.953125 -0.75 C 7.378906 -1.957031 7.832031 -3.140625 8.3125 -4.296875 C 6.894531 -2.804688 5.359375 -1.445312 3.703125 -0.21875 C 2.054688 1.007812 0.207031 1.992188 -1.84375 2.734375 C -2.21875 2.878906 -2.617188 2.8125 -3.046875 2.53125 C -3.472656 2.257812 -3.804688 1.898438 -4.046875 1.453125 C -4.285156 1.003906 -4.367188 0.59375 -4.296875 0.21875 C -3.921875 -1.445312 -3.285156 -3.070312 -2.390625 -4.65625 C -1.503906 -6.238281 -0.375 -7.550781 1 -8.59375 C 1.96875 -9.332031 3.007812 -9.675781 4.125 -9.625 C 5.238281 -9.570312 6.207031 -9.171875 7.03125 -8.421875 C 7.25 -8.679688 7.453125 -8.925781 7.640625 -9.15625 C 10.316406 -12.570312 12.734375 -16.1875 14.890625 -20 C 17.054688 -23.8125 19.101562 -27.65625 21.03125 -31.53125 C 21.070312 -31.5625 21.09375 -31.597656 21.09375 -31.640625 C 21.238281 -31.859375 21.460938 -31.96875 21.765625 -31.96875 C 21.867188 -31.96875 21.976562 -31.953125 22.09375 -31.921875 Z M 0.21875 -2.015625 C 1.226562 -2.640625 2.175781 -3.351562 3.0625 -4.15625 C 3.957031 -4.957031 4.816406 -5.804688 5.640625 -6.703125 C 5.566406 -6.734375 5.507812 -6.75 5.46875 -6.75 C 5.351562 -6.75 5.238281 -6.738281 5.125 -6.71875 C 5.019531 -6.707031 4.910156 -6.679688 4.796875 -6.640625 C 4.503906 -6.566406 4.21875 -6.4375 3.9375 -6.25 C 3.65625 -6.0625 3.40625 -5.875 3.1875 -5.6875 C 2.8125 -5.351562 2.457031 -5 2.125 -4.625 C 1.789062 -4.257812 1.472656 -3.890625 1.171875 -3.515625 C 0.835938 -3.035156 0.519531 -2.535156 0.21875 -2.015625 Z M 0.21875 -2.015625 "/></g></g></g><g fill="#2f323a" fill-opacity="1"><g transform="translate(352.719892, 114.773706)"><g><path d="M 14.5 -6.96875 C 14.875 -7.269531 15.285156 -7.316406 15.734375 -7.109375 C 16.179688 -6.910156 16.5 -6.601562 16.6875 -6.1875 C 16.875 -5.78125 16.78125 -5.46875 16.40625 -5.25 C 14.207031 -3.789062 11.945312 -2.316406 9.625 -0.828125 C 7.300781 0.648438 4.894531 1.835938 2.40625 2.734375 C 1.46875 3.066406 0.554688 3.203125 -0.328125 3.140625 C -1.222656 3.085938 -2.003906 2.632812 -2.671875 1.78125 C -3.347656 0.894531 -3.582031 -0.09375 -3.375 -1.1875 C -3.164062 -2.289062 -2.742188 -3.34375 -2.109375 -4.34375 C -1.484375 -5.351562 -0.851562 -6.191406 -0.21875 -6.859375 C 0.332031 -7.492188 1 -8.070312 1.78125 -8.59375 C 2.5625 -9.113281 3.367188 -9.410156 4.203125 -9.484375 C 5.046875 -9.554688 5.820312 -9.203125 6.53125 -8.421875 C 7.164062 -7.796875 7.425781 -7.164062 7.3125 -6.53125 C 7.195312 -5.894531 6.847656 -5.304688 6.265625 -4.765625 C 5.691406 -4.234375 5.015625 -3.742188 4.234375 -3.296875 C 3.453125 -2.847656 2.695312 -2.457031 1.96875 -2.125 C 1.25 -1.789062 0.6875 -1.507812 0.28125 -1.28125 C 0.09375 -0.875 -0.0546875 -0.46875 -0.171875 -0.0625 C 0.648438 -0.164062 1.710938 -0.457031 3.015625 -0.9375 C 4.316406 -1.425781 5.703125 -2.023438 7.171875 -2.734375 C 8.640625 -3.441406 10.023438 -4.164062 11.328125 -4.90625 C 12.628906 -5.65625 13.6875 -6.34375 14.5 -6.96875 Z M 14.5 -6.96875 "/></g></g></g><g fill="#2f323a" fill-opacity="1"><g transform="translate(367.503365, 114.773706)"><g><path d="M 10.328125 -7.3125 C 10.503906 -7.007812 10.566406 -6.703125 10.515625 -6.390625 C 10.460938 -6.078125 10.226562 -5.898438 9.8125 -5.859375 C 9.519531 -5.859375 9.242188 -5.941406 8.984375 -6.109375 C 8.722656 -6.273438 8.484375 -6.488281 8.265625 -6.75 C 7.890625 -6.75 7.382812 -6.523438 6.75 -6.078125 C 6.113281 -5.628906 5.6875 -5.332031 5.46875 -5.1875 C 5.0625 -4.894531 4.671875 -4.570312 4.296875 -4.21875 C 3.921875 -3.863281 3.550781 -3.5 3.1875 -3.125 C 1.582031 -1.414062 0.316406 0.441406 -0.609375 2.453125 C -0.835938 2.941406 -1.210938 3.070312 -1.734375 2.84375 C -2.253906 2.625 -2.707031 2.253906 -3.09375 1.734375 C -3.488281 1.210938 -3.609375 0.765625 -3.453125 0.390625 C -2.859375 -1.285156 -2.234375 -2.929688 -1.578125 -4.546875 C -0.929688 -6.160156 -0.3125 -7.804688 0.28125 -9.484375 C 0.425781 -9.859375 0.703125 -10 1.109375 -9.90625 C 1.523438 -9.8125 1.9375 -9.578125 2.34375 -9.203125 C 2.75 -8.835938 3.03125 -8.445312 3.1875 -8.03125 C 4.445312 -9 5.71875 -9.53125 7 -9.625 C 8.28125 -9.71875 9.390625 -8.945312 10.328125 -7.3125 Z M 10.328125 -7.3125 "/></g></g></g><g clip-path="url(#17f5c4a66e)"><path fill="#000000" d="M 166.1875 57.90625 C 169.269531 55.707031 174.792969 55.542969 184.816406 55.367188 C 174.792969 55.191406 169.269531 55.027344 166.1875 52.828125 C 167.234375 50.671875 169.546875 48.148438 173.132812 44.335938 C 169.320312 47.921875 166.792969 50.230469 164.640625 51.277344 C 162.4375 48.195312 162.277344 42.671875 162.097656 32.648438 C 161.921875 42.671875 161.761719 48.195312 159.558594 51.277344 C 157.40625 50.230469 154.878906 47.921875 151.066406 44.335938 C 154.652344 48.148438 156.960938 50.671875 158.011719 52.828125 C 154.929688 55.027344 149.402344 55.191406 139.378906 55.367188 C 149.402344 55.542969 154.929688 55.707031 158.011719 57.90625 C 156.960938 60.058594 154.652344 62.585938 151.066406 66.398438 C 154.878906 62.8125 157.40625 60.503906 159.558594 59.457031 C 161.761719 62.539062 161.921875 68.0625 162.097656 78.085938 C 162.277344 68.0625 162.4375 62.539062 164.640625 59.457031 C 166.792969 60.503906 169.320312 62.8125 173.132812 66.398438 C 169.546875 62.585938 167.234375 60.058594 166.1875 57.90625 Z M 166.1875 57.90625 " fill-opacity="1" fill-rule="nonzero"/></g><g clip-path="url(#1f18acad57)"><path fill="#000000" d="M 272.273438 87.65625 C 273.863281 86.519531 276.710938 86.4375 281.878906 86.34375 C 276.710938 86.253906 273.863281 86.167969 272.273438 85.035156 C 272.8125 83.925781 274.003906 82.621094 275.855469 80.65625 C 273.886719 82.503906 272.585938 83.695312 271.476562 84.234375 C 270.339844 82.648438 270.257812 79.796875 270.164062 74.628906 C 270.074219 79.796875 269.992188 82.648438 268.855469 84.234375 C 267.746094 83.695312 266.441406 82.503906 264.476562 80.65625 C 266.324219 82.621094 267.515625 83.925781 268.058594 85.035156 C 266.46875 86.167969 263.621094 86.253906 258.453125 86.34375 C 263.621094 86.4375 266.46875 86.519531 268.058594 87.65625 C 267.515625 88.765625 266.324219 90.066406 264.476562 92.03125 C 266.441406 90.183594 267.746094 88.992188 268.855469 88.453125 C 269.992188 90.042969 270.074219 92.890625 270.164062 98.058594 C 270.257812 92.890625 270.339844 90.042969 271.476562 88.453125 C 272.585938 88.992188 273.886719 90.183594 275.855469 92.03125 C 274.003906 90.066406 272.8125 88.765625 272.273438 87.65625 Z M 272.273438 87.65625 " fill-opacity="1" fill-rule="nonzero"/></g></svg>