<svg xmlns="http://www.w3.org/2000/svg" xmlns:xlink="http://www.w3.org/1999/xlink" width="1920" zoomAndPan="magnify" viewBox="0 0 1440 809.999993" height="1080" preserveAspectRatio="xMidYMid meet" version="1.0"><defs><g/><clipPath id="da8708dafb"><path d="M 518 136 L 914.972656 136 L 914.972656 670 L 518 670 Z M 518 136 " clip-rule="nonzero"/></clipPath><clipPath id="fbc405d53d"><path d="M 399.261719 167.816406 L 572.121094 167.816406 L 572.121094 340.675781 L 399.261719 340.675781 Z M 399.261719 167.816406 " clip-rule="nonzero"/></clipPath><clipPath id="91b60268d9"><path d="M 855.511719 328.679688 L 945.65625 328.679688 L 945.65625 418.828125 L 855.511719 418.828125 Z M 855.511719 328.679688 " clip-rule="nonzero"/></clipPath></defs><g clip-path="url(#da8708dafb)"><path fill="#000000" d="M 615.390625 564.445312 C 565.675781 553.046875 526.265625 559.960938 519.308594 581.542969 C 515.394531 593.757812 522.683594 608.539062 539.835938 623.148438 C 571.230469 649.90625 627.128906 669.140625 670.882812 669.140625 C 690.285156 669.132812 717.371094 664.898438 723.136719 646.675781 C 730.550781 623.746094 697.355469 592.546875 645.734375 573.578125 C 651.695312 523.167969 681.5 457.839844 710.882812 414.144531 C 784.574219 370.132812 865.628906 322.109375 866.953125 320.890625 C 877.285156 316.722656 887.9375 309.105469 890.996094 298.453125 C 897.871094 277.066406 877.53125 248.792969 836.609375 222.839844 C 836.53125 222.789062 836.4375 222.835938 836.359375 222.796875 C 834.539062 221.632812 832.601562 220.464844 830.679688 219.300781 L 838.902344 208.3125 L 911.347656 160.125 C 913.820312 158.421875 915.011719 155.195312 913.738281 152.066406 C 913.621094 151.765625 913.597656 151.445312 913.4375 151.152344 C 912.398438 149.257812 908.117188 142.855469 903.992188 139.371094 C 903.496094 138.949219 903.078125 138.386719 902.566406 137.996094 C 902.558594 137.988281 902.542969 137.992188 902.535156 137.984375 C 900.476562 136.445312 897.472656 136.167969 894.957031 137.808594 C 890.335938 140.824219 825.539062 183.800781 826.671875 183.097656 L 821.203125 186.726562 C 820.636719 187.152344 820.207031 187.570312 819.550781 188.269531 L 806.222656 206.109375 C 790.730469 198.652344 774.335938 191.78125 752.320312 184.664062 C 663.214844 156.265625 584.597656 161.664062 573.332031 196.953125 C 571.207031 203.328125 571.554688 211.796875 574.914062 219.644531 C 574.9375 219.710938 574.886719 219.777344 574.917969 219.84375 L 654.636719 399.601562 C 653.558594 440.78125 646.5 482.5 634.183594 520.289062 C 628.605469 537.386719 622.390625 551.917969 615.390625 564.445312 Z M 717.90625 645.003906 C 716.382812 649.816406 712.578125 653.832031 706.59375 656.9375 C 673.4375 674.113281 587.824219 656.832031 543.398438 618.972656 C 528.257812 606.078125 521.386719 593.046875 524.539062 583.21875 C 530.332031 565.300781 567.824219 559.570312 612.507812 569.433594 C 605.175781 581.574219 597.003906 591.6875 587.695312 600.015625 C 583.820312 603.472656 584.058594 609.695312 588.40625 612.546875 C 603.925781 622.804688 621.5 629.230469 640.242188 628.746094 C 645.265625 628.625 648.617188 623.726562 647.5 618.929688 C 644.4375 605.621094 644.078125 592.207031 645.171875 579.230469 C 692.453125 596.921875 724.238281 625.433594 717.90625 645.003906 Z M 591.6875 244.113281 C 623.691406 277.308594 680.421875 301.996094 725.066406 314.714844 L 713.441406 330.269531 C 678.785156 320.542969 645.746094 304.992188 620.730469 285.644531 C 619.742188 284.984375 618.535156 286.082031 618.972656 287.179688 L 668.925781 405.632812 C 672.441406 414.855469 682.210938 418.148438 690.554688 412.878906 L 808.570312 342.730469 C 809.558594 341.960938 809.121094 340.3125 807.914062 340.425781 C 787.316406 342.421875 765.003906 341.015625 742.621094 336.953125 L 753.953125 321.8125 C 783.609375 328.074219 818.1875 331.53125 847.886719 326.101562 L 691.660156 419.210938 C 682.242188 424.808594 670.085938 420.902344 665.671875 410.945312 Z M 604.703125 216.921875 C 602.507812 215.386719 600.199219 213.957031 598.003906 212.421875 C 600.3125 217.03125 602.617188 221.644531 605.03125 226.253906 C 602.726562 225.265625 600.421875 224.277344 598.226562 223.179688 C 604.261719 232.621094 611.070312 242.0625 617.109375 251.394531 C 602.066406 242.5 589.769531 228.449219 583.402344 212.09375 C 582.964844 210.996094 583.402344 209.566406 584.390625 208.796875 C 591.417969 203.859375 599.761719 200.785156 608.324219 200.015625 C 604.59375 204.738281 603.273438 210.996094 604.703125 216.921875 Z M 824.351562 191.230469 L 836.953125 182.867188 C 900.625 140.992188 898.074219 141.472656 899.265625 142.390625 C 899.289062 142.410156 899.308594 142.4375 899.332031 142.457031 C 902.09375 144.558594 904.46875 147.46875 906.675781 150.871094 C 907.984375 152.914062 909.703125 154.613281 908.226562 155.582031 L 835.871094 203.730469 C 835.851562 203.742188 835.839844 203.765625 835.820312 203.777344 C 835.273438 204.132812 834.828125 204.5625 834.15625 205.285156 L 751.621094 315.6875 C 745.8125 314.480469 740.054688 313.042969 734.355469 311.515625 L 824.300781 191.28125 C 824.316406 191.269531 824.335938 191.242188 824.351562 191.230469 Z M 835.171875 296.691406 C 835.171875 293.789062 844.148438 293.785156 844.148438 296.691406 C 844.148438 297.902344 842.140625 298.886719 839.660156 298.886719 C 837.183594 298.886719 835.171875 297.902344 835.171875 296.691406 Z M 858.132812 304.828125 C 861.140625 304.828125 863.578125 306.027344 863.578125 307.503906 C 863.578125 308.980469 861.140625 310.175781 858.132812 310.175781 C 855.128906 310.175781 852.691406 308.980469 852.691406 307.503906 C 852.691406 306.027344 855.128906 304.828125 858.132812 304.828125 Z M 856.910156 293.253906 C 860.339844 293.253906 860.347656 295.734375 856.910156 295.734375 C 853.472656 295.734375 853.492188 293.253906 856.910156 293.253906 Z M 747.449219 360.363281 C 748.300781 361.183594 749.730469 360.933594 750.765625 361.507812 C 753.871094 363.222656 751.148438 368.679688 745.71875 366.582031 C 743.53125 365.738281 741.722656 363.953125 740.851562 361.773438 C 739.734375 358.980469 739.878906 353.992188 743.761719 353.679688 C 749.171875 353.238281 745.207031 358.195312 747.449219 360.363281 Z M 640.367188 273.679688 C 632.769531 247.363281 647.871094 219.601562 674.207031 211.648438 C 692.21875 206.308594 710.75 211.722656 723.367188 223.910156 C 720.554688 227.527344 715.871094 229.652344 711.308594 229.082031 C 709.8125 228.898438 708.292969 228.457031 706.820312 228.78125 C 705.347656 229.109375 703.980469 230.617188 704.507812 232.03125 C 704.980469 233.308594 706.65625 233.691406 707.984375 233.390625 C 709.3125 233.09375 710.5 232.328125 711.828125 232.035156 C 713.15625 231.742188 714.832031 232.136719 715.292969 233.417969 C 716.175781 235.882812 711.558594 238.492188 713.464844 240.695312 C 714.386719 241.757812 716.277344 241.117188 717 239.90625 C 717.726562 238.699219 717.707031 237.207031 717.910156 235.8125 C 718.53125 231.519531 721.699219 227.796875 725.746094 226.269531 C 730.597656 231.632812 734.46875 238.003906 736.667969 245.375 C 739.851562 255.976562 739.269531 266.738281 735.859375 276.441406 C 731.1875 274.480469 726.460938 272.644531 721.675781 270.980469 C 719.355469 270.175781 718.894531 271.945312 720.328125 273.316406 C 724.257812 277.070312 731.195312 276.488281 733.675781 281.773438 C 728.964844 291.417969 721.238281 299.625 710.925781 304.738281 C 686.4375 296.730469 660.652344 285.335938 640.367188 273.679688 Z M 702.921875 380.941406 C 702.875 381.003906 702.871094 381.082031 702.832031 381.148438 C 698.535156 379.59375 692.25 374.382812 689.960938 370.082031 C 689.964844 370.078125 689.96875 370.082031 689.96875 370.082031 C 692.855469 370.914062 700.050781 375.699219 702.921875 380.941406 Z M 706.4375 376.125 C 703.117188 371.976562 699.171875 368.234375 693.824219 365.695312 L 730.777344 316.296875 C 736.460938 317.863281 742.253906 319.214844 748.046875 320.46875 Z M 692.488281 386.050781 C 696.996094 385.683594 693.695312 389.8125 695.558594 391.617188 C 696.269531 392.300781 697.460938 392.09375 698.324219 392.570312 C 699.199219 393.054688 699.5625 394.230469 699.242188 395.183594 C 698.089844 398.632812 691.9375 397.46875 690.066406 392.789062 C 689.136719 390.464844 689.257812 386.3125 692.488281 386.050781 Z M 656.421875 329.394531 C 657.683594 330.613281 659.804688 330.242188 661.34375 331.09375 C 662.90625 331.953125 663.546875 334.054688 662.980469 335.746094 C 662.414062 337.4375 660.835938 338.675781 659.105469 339.109375 C 657.371094 339.546875 655.523438 339.261719 653.855469 338.617188 C 650.609375 337.367188 647.925781 334.71875 646.632812 331.484375 C 644.976562 327.34375 645.191406 319.945312 650.949219 319.476562 C 658.976562 318.824219 653.09375 326.179688 656.421875 329.394531 Z M 673.34375 387.132812 C 671.660156 386.496094 669.976562 385.859375 668.289062 385.222656 C 670.96875 388.382812 673.644531 391.542969 676.324219 394.703125 C 674.867188 394.089844 673.410156 393.476562 671.957031 392.863281 C 673.992188 398.605469 676.878906 404.636719 681.484375 408.617188 C 678.167969 408.53125 675.148438 406.476562 673.101562 403.863281 C 671.054688 401.246094 669.824219 398.105469 668.625 395.011719 C 665.660156 387.390625 662.699219 379.773438 659.738281 372.15625 C 663.582031 377.753906 668.242188 382.652344 673.34375 387.132812 Z M 776.199219 347.265625 C 778.589844 347.265625 778.59375 350.882812 776.199219 350.882812 C 773.804688 350.882812 773.800781 347.265625 776.199219 347.265625 Z M 782.964844 352.277344 C 782.964844 353.160156 781.625 353.160156 781.625 352.277344 C 781.625 351.90625 782.964844 351.390625 782.964844 352.277344 Z M 782.964844 345.671875 C 784.738281 345.671875 784.734375 348.351562 782.964844 348.351562 C 782.222656 348.351562 781.195312 345.671875 782.964844 345.671875 Z M 833.660156 227.578125 C 833.753906 227.636719 833.863281 227.617188 833.957031 227.664062 C 872.4375 252.148438 891.808594 277.96875 885.746094 296.855469 C 885.003906 299.449219 883.800781 301.679688 882.191406 303.699219 C 877.855469 285.664062 858.402344 265.097656 828.882812 246.453125 L 815.753906 239.242188 L 827.378906 223.710938 C 829.511719 225 831.644531 226.289062 833.660156 227.578125 Z M 578.550781 198.660156 C 588.726562 166.8125 665.960938 162.894531 750.636719 189.890625 C 768.789062 195.757812 785.628906 202.363281 800.695312 209.519531 L 802.804688 210.539062 C 802.832031 210.550781 802.855469 210.5625 802.882812 210.578125 L 791.199219 226.210938 C 776.964844 219.65625 761.582031 213.640625 745.117188 208.359375 C 670.523438 184.519531 601.800781 184.984375 577.542969 207.046875 C 577.390625 204.214844 577.660156 201.3125 578.550781 198.660156 Z M 659.46875 410.503906 L 660.652344 413.175781 C 666.441406 426.1875 682.28125 431.183594 694.46875 423.925781 L 700.261719 420.476562 C 667.828125 471.691406 628.292969 560.003906 642.160156 620.164062 C 642.492188 621.628906 641.59375 623.226562 640.113281 623.257812 C 623.460938 623.769531 607.371094 618.496094 591.429688 607.964844 C 583.71875 602.949219 614.25 599.152344 639.394531 521.996094 C 650.808594 486.992188 657.515625 448.679688 659.46875 410.503906 Z M 659.46875 410.503906 " fill-opacity="1" fill-rule="nonzero"/></g><path fill="#000000" d="M 568.679688 572.535156 C 558.554688 572.890625 546.671875 573.722656 540.851562 583 C 537.761719 587.929688 537.601562 594.355469 539.652344 599.796875 C 543.84375 610.945312 554.851562 616.738281 565.851562 621.296875 C 557.136719 614.605469 549.675781 605.398438 552.644531 594.8125 C 554.023438 589.890625 558.210938 585.648438 563.28125 585 C 557.695312 584.507812 551.953125 585.960938 547.273438 589.054688 C 552.476562 581.597656 560.140625 575.65625 568.679688 572.535156 Z M 568.679688 572.535156 " fill-opacity="1" fill-rule="nonzero"/><path fill="#000000" d="M 695.820312 636.714844 C 699.253906 636.714844 702.039062 635.496094 702.039062 633.992188 C 702.039062 632.492188 699.253906 631.273438 695.820312 631.273438 C 692.386719 631.273438 689.601562 632.492188 689.601562 633.992188 C 689.601562 635.496094 692.386719 636.714844 695.820312 636.714844 Z M 695.820312 636.714844 " fill-opacity="1" fill-rule="nonzero"/><path fill="#000000" d="M 681.632812 640.695312 C 681.632812 638.769531 674.824219 638.769531 674.824219 640.695312 C 674.824219 642.625 681.632812 642.625 681.632812 640.695312 Z M 681.632812 640.695312 " fill-opacity="1" fill-rule="nonzero"/><path fill="#000000" d="M 694.460938 647.011719 C 694.460938 645.214844 688.046875 645.214844 688.046875 647.011719 C 688.046875 647.765625 694.460938 648.8125 694.460938 647.011719 Z M 694.460938 647.011719 " fill-opacity="1" fill-rule="nonzero"/><path fill="#000000" d="M 602.296875 607.972656 C 608.03125 609.976562 613.761719 611.984375 619.496094 613.992188 C 616 610.542969 612.019531 607.316406 608.523438 603.867188 C 609.914062 604.273438 611.308594 604.679688 612.699219 605.085938 C 611.433594 603.304688 610.167969 601.523438 608.902344 599.746094 C 610.308594 600.441406 611.71875 601.136719 613.128906 601.835938 C 612.234375 598.496094 612.382812 595.113281 612.890625 591.691406 C 600.25 602.921875 599.050781 603.488281 599.160156 605.207031 C 599.257812 606.6875 600.898438 607.480469 602.296875 607.972656 Z M 602.296875 607.972656 " fill-opacity="1" fill-rule="nonzero"/><path fill="#000000" d="M 672.257812 444.441406 C 674.601562 444.441406 674.601562 439.761719 672.257812 439.761719 C 669.914062 439.761719 669.914062 444.441406 672.257812 444.441406 Z M 672.257812 444.441406 " fill-opacity="1" fill-rule="nonzero"/><path fill="#000000" d="M 678.644531 439.003906 C 681.402344 439.003906 681.402344 433.566406 678.644531 433.566406 C 675.882812 433.566406 675.882812 439.003906 678.644531 439.003906 Z M 678.644531 439.003906 " fill-opacity="1" fill-rule="nonzero"/><path fill="#000000" d="M 885.179688 498.289062 C 874.726562 483.320312 863.152344 471.3125 851.691406 458.839844 C 839.898438 446.714844 828.109375 434.234375 812.640625 424.40625 C 823.988281 455.730469 853.007812 488.113281 885.179688 498.289062 Z M 885.179688 498.289062 " fill-opacity="1" fill-rule="nonzero"/><path fill="#000000" d="M 852.902344 409.246094 C 843.839844 405.742188 834.347656 405.769531 826.339844 411.328125 C 837.296875 423.628906 849.992188 422.4375 857.664062 423.984375 C 868.808594 425.800781 880.035156 426.707031 891.582031 426.894531 C 875.832031 416.957031 862.046875 414.101562 852.902344 409.246094 Z M 852.902344 409.246094 " fill-opacity="1" fill-rule="nonzero"/><path fill="#000000" d="M 807.011719 452.246094 C 804.3125 443.476562 798.570312 437.195312 789.925781 435.15625 C 786.542969 450.34375 794.851562 458.082031 798.195312 464.417969 C 803.3125 473.1875 809.152344 481.460938 815.832031 489.503906 C 814.90625 478.953125 811.957031 469.140625 808.859375 459.582031 C 808.007812 457.101562 807.527344 455.226562 807.011719 452.246094 Z M 807.011719 452.246094 " fill-opacity="1" fill-rule="nonzero"/><path fill="#000000" d="M 671.242188 240.246094 C 659.347656 245.328125 653.546875 258.527344 657.296875 270.617188 C 661.0625 261.753906 673.527344 261.828125 677.265625 270.574219 C 679.625 276.09375 677.0625 282.484375 671.539062 284.84375 C 670.855469 285.136719 670.148438 285.132812 669.445312 285.277344 C 690.417969 296.332031 713.285156 274.941406 704.085938 253.417969 C 698.65625 240.710938 683.949219 234.8125 671.242188 240.246094 Z M 686.09375 255.074219 C 683.984375 255.976562 681.546875 254.996094 680.644531 252.890625 C 679.746094 250.78125 680.722656 248.34375 682.832031 247.441406 C 684.9375 246.542969 687.378906 247.519531 688.277344 249.628906 C 689.179688 251.734375 688.199219 254.171875 686.09375 255.074219 Z M 689.441406 263.558594 C 688.265625 260.808594 692.425781 259.027344 693.601562 261.78125 C 694.09375 262.929688 690.617188 266.3125 689.441406 263.558594 Z M 689.441406 263.558594 " fill-opacity="1" fill-rule="nonzero"/><path fill="#000000" d="M 658.65625 229.472656 C 664.964844 225.703125 672.316406 223.707031 679.660156 223.769531 C 676.148438 223.210938 672.632812 222.65625 669.121094 222.101562 C 675.164062 219.8125 681.773438 218.09375 688.132812 216.953125 C 672.578125 214.683594 657.097656 222.699219 650.113281 237.074219 C 655.09375 232.21875 662.261719 229.21875 669.214844 229.429688 C 665.765625 228.5625 662.101562 228.578125 658.65625 229.472656 Z M 658.65625 229.472656 " fill-opacity="1" fill-rule="nonzero"/><g fill="#2f323a" fill-opacity="1"><g transform="translate(96.006549, 458.286248)"><g><path d="M 65.9375 -19.46875 C 63.882812 -18.832031 61.796875 -18.191406 59.671875 -17.546875 C 57.546875 -16.898438 55.394531 -16.382812 53.21875 -16 C 52.957031 -15.226562 52.695312 -14.488281 52.4375 -13.78125 C 52.1875 -13.070312 51.867188 -12.332031 51.484375 -11.5625 C 55.722656 -8.09375 60.125 -4.878906 64.6875 -1.921875 C 69.25 1.023438 73.78125 3.785156 78.28125 6.359375 C 88.300781 12.015625 98.867188 16.707031 109.984375 20.4375 C 121.109375 24.164062 132.453125 25.578125 144.015625 24.671875 C 145.554688 24.671875 146.328125 25.347656 146.328125 26.703125 C 146.328125 28.054688 146.070312 29.117188 145.5625 29.890625 C 143.894531 32.835938 141.453125 34.441406 138.234375 34.703125 C 126.410156 35.597656 114.710938 34.148438 103.140625 30.359375 C 91.578125 26.566406 80.71875 21.78125 70.5625 16 C 66.707031 13.6875 62.816406 11.304688 58.890625 8.859375 C 54.972656 6.421875 51.148438 3.789062 47.421875 0.96875 C 45.109375 8.675781 43.117188 16.257812 41.453125 23.71875 C 41.191406 25 40.515625 25.570312 39.421875 25.4375 C 38.328125 25.3125 37.101562 24.734375 35.75 23.703125 C 34.40625 22.679688 33.316406 21.523438 32.484375 20.234375 C 31.648438 18.953125 31.363281 17.734375 31.625 16.578125 C 33.289062 8.867188 35.34375 1.09375 37.78125 -6.75 C 35.34375 -8.800781 33.0625 -10.921875 30.9375 -13.109375 C 28.820312 -15.296875 26.800781 -17.546875 24.875 -19.859375 C 24.101562 -20.753906 23.972656 -21.875 24.484375 -23.21875 C 24.992188 -24.570312 25.890625 -25.796875 27.171875 -26.890625 C 28.460938 -27.984375 29.78125 -28.722656 31.125 -29.109375 C 32.476562 -29.492188 33.539062 -29.238281 34.3125 -28.34375 C 34.570312 -27.957031 34.828125 -27.601562 35.078125 -27.28125 C 35.335938 -26.957031 35.597656 -26.664062 35.859375 -26.40625 C 38.171875 -25.507812 40.867188 -25.191406 43.953125 -25.453125 C 52.179688 -46.910156 62.785156 -67.28125 75.765625 -86.5625 C 76.410156 -87.46875 77.34375 -87.726562 78.5625 -87.34375 C 79.78125 -86.957031 81 -86.179688 82.21875 -85.015625 C 83.445312 -83.859375 84.347656 -82.570312 84.921875 -81.15625 C 85.503906 -79.75 85.410156 -78.53125 84.640625 -77.5 C 74.359375 -62.207031 65.617188 -46.078125 58.421875 -29.109375 C 59.703125 -29.492188 60.953125 -29.910156 62.171875 -30.359375 C 63.398438 -30.816406 64.523438 -31.238281 65.546875 -31.625 C 70.429688 -33.289062 75.25 -35.085938 80 -37.015625 C 84.757812 -38.941406 89.390625 -41.0625 93.890625 -43.375 C 101.859375 -47.488281 109.441406 -52.375 116.640625 -58.03125 C 123.835938 -63.6875 130.203125 -70.113281 135.734375 -77.3125 C 136.753906 -78.726562 137.90625 -80.523438 139.1875 -82.703125 C 140.476562 -84.890625 141.539062 -87.171875 142.375 -89.546875 C 143.21875 -91.929688 143.410156 -94.148438 142.953125 -96.203125 C 142.503906 -98.265625 141.125 -99.875 138.8125 -101.03125 C 135.34375 -102.820312 131.550781 -103.78125 127.4375 -103.90625 C 123.320312 -104.039062 119.335938 -103.976562 115.484375 -103.71875 C 105.710938 -103.082031 96.039062 -101.539062 86.46875 -99.09375 C 76.894531 -96.65625 67.609375 -93.441406 58.609375 -89.453125 C 49.359375 -85.210938 40.679688 -80.265625 32.578125 -74.609375 C 31.296875 -73.710938 29.5625 -72.492188 27.375 -70.953125 C 25.1875 -69.410156 23.066406 -67.675781 21.015625 -65.75 C 18.960938 -63.820312 17.390625 -61.796875 16.296875 -59.671875 C 15.203125 -57.546875 15.039062 -55.457031 15.8125 -53.40625 C 16.96875 -50.832031 16.898438 -49.320312 15.609375 -48.875 C 14.328125 -48.425781 12.753906 -48.679688 10.890625 -49.640625 C 9.023438 -50.609375 7.773438 -51.925781 7.140625 -53.59375 C 5.335938 -57.832031 5.078125 -61.6875 6.359375 -65.15625 C 7.648438 -68.632812 9.804688 -71.785156 12.828125 -74.609375 C 15.847656 -77.441406 18.960938 -80.015625 22.171875 -82.328125 C 32.960938 -90.160156 44.46875 -96.585938 56.6875 -101.609375 C 66.832031 -105.847656 77.847656 -109.285156 89.734375 -111.921875 C 101.628906 -114.554688 113.101562 -115.226562 124.15625 -113.9375 C 128.65625 -113.425781 133.054688 -112.269531 137.359375 -110.46875 C 141.671875 -108.675781 145.304688 -105.914062 148.265625 -102.1875 C 151.734375 -97.8125 153.335938 -93.148438 153.078125 -88.203125 C 152.816406 -83.253906 151.273438 -78.46875 148.453125 -73.84375 C 142.671875 -64.457031 135.25 -56.289062 126.1875 -49.34375 C 117.125 -42.40625 107.707031 -36.5625 97.9375 -31.8125 C 92.800781 -29.363281 87.566406 -27.113281 82.234375 -25.0625 C 76.898438 -23.007812 71.46875 -21.144531 65.9375 -19.46875 Z M 65.9375 -19.46875 "/></g></g></g><g fill="#2f323a" fill-opacity="1"><g transform="translate(222.840891, 458.286248)"><g><path d="M 22.5625 -25.453125 C 23.070312 -20.441406 22.648438 -15.523438 21.296875 -10.703125 C 19.953125 -5.878906 17.738281 -1.539062 14.65625 2.3125 C 11.820312 6.039062 8.378906 8.453125 4.328125 9.546875 C 0.285156 10.640625 -3.535156 9.191406 -7.140625 5.203125 C -10.347656 1.609375 -11.691406 -2.304688 -11.171875 -6.546875 C -10.660156 -10.796875 -8.988281 -14.910156 -6.15625 -18.890625 C -3.332031 -22.878906 -0.0625 -26.445312 3.65625 -29.59375 C 7.382812 -32.738281 10.789062 -35.082031 13.875 -36.625 C 15.164062 -37.269531 16.613281 -37.015625 18.21875 -35.859375 C 19.820312 -34.703125 21.070312 -33.253906 21.96875 -31.515625 C 22.875 -29.785156 22.878906 -28.40625 21.984375 -27.375 C 22.234375 -26.726562 22.425781 -26.085938 22.5625 -25.453125 Z M 9.453125 -12.53125 C 10.609375 -15.101562 11.441406 -17.800781 11.953125 -20.625 C 10.023438 -18.957031 8.289062 -17.160156 6.75 -15.234375 C 4.820312 -12.785156 3.210938 -10.148438 1.921875 -7.328125 C 1.535156 -6.679688 1.210938 -6.035156 0.953125 -5.390625 C 0.703125 -4.753906 0.445312 -4.113281 0.1875 -3.46875 C 0.1875 -3.34375 0.15625 -3.019531 0.09375 -2.5 C 0.03125 -1.988281 -0.0625 -1.539062 -0.1875 -1.15625 C 0.582031 -1.800781 1.316406 -2.347656 2.015625 -2.796875 C 2.722656 -3.242188 3.398438 -3.789062 4.046875 -4.4375 C 6.234375 -6.875 8.035156 -9.570312 9.453125 -12.53125 Z M 9.453125 -12.53125 "/></g></g></g><g fill="#2f323a" fill-opacity="1"><g transform="translate(258.501009, 458.286248)"><g><path d="M 72.296875 -24.671875 C 73.585938 -25.703125 74.96875 -25.863281 76.4375 -25.15625 C 77.914062 -24.445312 79.039062 -23.382812 79.8125 -21.96875 C 80.582031 -20.5625 80.390625 -19.34375 79.234375 -18.3125 C 74.734375 -14.332031 70.203125 -10.410156 65.640625 -6.546875 C 61.078125 -2.691406 56.226562 0.707031 51.09375 3.65625 C 48.78125 5.070312 46.238281 6.390625 43.46875 7.609375 C 40.707031 8.835938 37.914062 9.257812 35.09375 8.875 C 32.132812 8.613281 29.5625 7.453125 27.375 5.390625 C 25.1875 3.335938 23.644531 0.898438 22.75 -1.921875 C 22.238281 -3.722656 22.046875 -5.457031 22.171875 -7.125 C 22.296875 -8.800781 22.617188 -10.410156 23.140625 -11.953125 C 17.992188 -8.609375 13.109375 -4.78125 8.484375 -0.46875 C 3.859375 3.832031 -1.410156 7.140625 -7.328125 9.453125 C -8.609375 9.960938 -9.988281 9.734375 -11.46875 8.765625 C -12.945312 7.804688 -14.132812 6.554688 -15.03125 5.015625 C -15.9375 3.472656 -16.257812 2.054688 -16 0.765625 C -14.71875 -5.015625 -12.5 -10.632812 -9.34375 -16.09375 C -6.195312 -21.5625 -2.25 -26.09375 2.5 -29.6875 C 6.363281 -32.519531 10.445312 -33.644531 14.75 -33.0625 C 19.050781 -32.488281 22.617188 -30.398438 25.453125 -26.796875 C 26.472656 -27.179688 27.5 -27.566406 28.53125 -27.953125 C 29.820312 -28.210938 31.300781 -27.765625 32.96875 -26.609375 C 34 -25.835938 34.960938 -24.90625 35.859375 -23.8125 C 36.753906 -22.71875 37.269531 -21.65625 37.40625 -20.625 C 37.53125 -19.988281 37.460938 -19.410156 37.203125 -18.890625 C 37.078125 -17.347656 36.753906 -15.867188 36.234375 -14.453125 C 35.722656 -13.046875 35.210938 -11.570312 34.703125 -10.03125 C 34.191406 -8.613281 33.804688 -7.195312 33.546875 -5.78125 C 33.285156 -4.363281 32.960938 -2.882812 32.578125 -1.34375 C 32.710938 -1.34375 32.8125 -1.34375 32.875 -1.34375 C 32.9375 -1.34375 33.03125 -1.34375 33.15625 -1.34375 C 35.988281 -1.726562 39.265625 -2.820312 42.984375 -4.625 C 46.710938 -6.425781 50.472656 -8.578125 54.265625 -11.078125 C 58.054688 -13.585938 61.554688 -16.0625 64.765625 -18.5 C 67.984375 -20.945312 70.492188 -23.003906 72.296875 -24.671875 Z M 2.703125 -11.765625 C 5.273438 -13.816406 7.78125 -15.835938 10.21875 -17.828125 C 12.65625 -19.828125 15.226562 -21.660156 17.9375 -23.328125 C 17.800781 -23.328125 17.734375 -23.328125 17.734375 -23.328125 C 17.484375 -23.328125 17.160156 -23.296875 16.765625 -23.234375 C 16.378906 -23.171875 15.992188 -23.070312 15.609375 -22.9375 C 14.585938 -22.6875 13.59375 -22.238281 12.625 -21.59375 C 11.664062 -20.945312 10.800781 -20.304688 10.03125 -19.671875 C 8.613281 -18.515625 7.328125 -17.289062 6.171875 -16 C 5.015625 -14.71875 3.984375 -13.429688 3.078125 -12.140625 C 2.953125 -12.015625 2.890625 -11.921875 2.890625 -11.859375 C 2.890625 -11.796875 2.828125 -11.765625 2.703125 -11.765625 Z M 2.703125 -11.765625 "/></g></g></g><g fill="#2f323a" fill-opacity="1"><g transform="translate(331.941558, 458.286248)"><g><path d="M 108.15625 -23.90625 C 109.445312 -25.0625 110.765625 -25.285156 112.109375 -24.578125 C 113.460938 -23.867188 114.394531 -22.875 114.90625 -21.59375 C 115.414062 -20.3125 115.09375 -19.15625 113.9375 -18.125 C 109.3125 -14.394531 104.554688 -10.726562 99.671875 -7.125 C 94.785156 -3.53125 89.773438 -0.253906 84.640625 2.703125 C 82.710938 3.859375 80.625 4.984375 78.375 6.078125 C 76.125 7.171875 73.84375 7.71875 71.53125 7.71875 C 69.082031 7.84375 66.828125 7.164062 64.765625 5.6875 C 62.710938 4.207031 61.367188 2.25 60.734375 -0.1875 C 60.347656 -1.21875 60.21875 -2.242188 60.34375 -3.265625 C 60.46875 -4.296875 60.660156 -5.328125 60.921875 -6.359375 C 60.921875 -6.359375 60.921875 -6.390625 60.921875 -6.453125 C 60.921875 -6.523438 60.921875 -6.5625 60.921875 -6.5625 C 60.273438 -6.300781 59.828125 -6.109375 59.578125 -5.984375 C 58.671875 -5.460938 57.769531 -4.847656 56.875 -4.140625 C 55.976562 -3.429688 55.078125 -2.757812 54.171875 -2.125 C 52.378906 -0.832031 50.613281 0.453125 48.875 1.734375 C 47.132812 3.015625 45.367188 4.300781 43.578125 5.59375 C 42.160156 6.488281 40.644531 6.484375 39.03125 5.578125 C 37.425781 4.679688 36.109375 3.429688 35.078125 1.828125 C 34.054688 0.222656 33.738281 -1.285156 34.125 -2.703125 C 34.507812 -4.753906 34.957031 -6.875 35.46875 -9.0625 C 35.988281 -11.25 36.503906 -13.429688 37.015625 -15.609375 C 37.140625 -16.128906 37.296875 -16.707031 37.484375 -17.34375 C 37.679688 -17.988281 37.847656 -18.632812 37.984375 -19.28125 C 37.210938 -18.769531 36.441406 -18.285156 35.671875 -17.828125 C 34.898438 -17.378906 34.191406 -16.960938 33.546875 -16.578125 C 29.304688 -14.265625 25.128906 -11.695312 21.015625 -8.875 C 17.285156 -6.164062 13.648438 -3.300781 10.109375 -0.28125 C 6.578125 2.726562 3.207031 5.84375 0 9.0625 C -1.15625 10.09375 -2.503906 10.222656 -4.046875 9.453125 C -5.585938 8.679688 -6.9375 7.519531 -8.09375 5.96875 C -9.25 4.425781 -9.765625 3.078125 -9.640625 1.921875 C -8.359375 -8.222656 -5.398438 -17.664062 -0.765625 -26.40625 C -0.128906 -27.5625 0.828125 -28.039062 2.109375 -27.84375 C 3.398438 -27.65625 4.6875 -27.046875 5.96875 -26.015625 C 7.257812 -24.992188 8.257812 -23.835938 8.96875 -22.546875 C 9.675781 -21.265625 9.769531 -20.113281 9.25 -19.09375 C 8.351562 -17.414062 7.457031 -15.613281 6.5625 -13.6875 C 10.925781 -17.15625 15.515625 -20.332031 20.328125 -23.21875 C 25.148438 -26.113281 30.070312 -28.722656 35.09375 -31.046875 C 38.300781 -32.453125 41.414062 -32.382812 44.4375 -30.84375 C 47.457031 -29.300781 49.160156 -26.664062 49.546875 -22.9375 C 49.804688 -21.394531 49.742188 -19.785156 49.359375 -18.109375 C 48.972656 -16.441406 48.585938 -14.835938 48.203125 -13.296875 C 49.609375 -14.328125 50.957031 -15.226562 52.25 -16 C 54.050781 -17.03125 55.945312 -17.769531 57.9375 -18.21875 C 59.925781 -18.664062 61.953125 -18.441406 64.015625 -17.546875 C 66.066406 -16.640625 67.832031 -15.222656 69.3125 -13.296875 C 70.789062 -11.367188 71.65625 -9.316406 71.90625 -7.140625 C 71.90625 -6.367188 71.90625 -5.46875 71.90625 -4.4375 C 73.195312 -4.6875 75.316406 -5.488281 78.265625 -6.84375 C 81.222656 -8.195312 84.535156 -9.800781 88.203125 -11.65625 C 91.867188 -13.519531 95.5 -15.546875 99.09375 -17.734375 C 102.695312 -19.921875 105.71875 -21.976562 108.15625 -23.90625 Z M 108.15625 -23.90625 "/></g></g></g><g fill="#2f323a" fill-opacity="1"><g transform="translate(440.463976, 458.286248)"><g><path d="M 36.4375 -23.90625 C 37.59375 -24.9375 38.910156 -25.160156 40.390625 -24.578125 C 41.867188 -24.003906 42.925781 -23.039062 43.5625 -21.6875 C 44.207031 -20.34375 43.953125 -19.15625 42.796875 -18.125 C 39.710938 -15.550781 36.53125 -13.007812 33.25 -10.5 C 29.976562 -8 26.671875 -5.59375 23.328125 -3.28125 C 20.503906 -1.476562 17.546875 0.382812 14.453125 2.3125 C 11.367188 4.238281 8.222656 5.585938 5.015625 6.359375 C 2.441406 6.742188 0.03125 6.359375 -2.21875 5.203125 C -4.46875 4.046875 -6.296875 2.40625 -7.703125 0.28125 C -9.117188 -1.832031 -9.828125 -4.175781 -9.828125 -6.75 C -9.960938 -10.988281 -8.804688 -15.390625 -6.359375 -19.953125 C -3.921875 -24.515625 -1.671875 -28.597656 0.390625 -32.203125 C 1.160156 -33.359375 2.1875 -33.804688 3.46875 -33.546875 C 4.75 -33.285156 6.03125 -32.640625 7.3125 -31.609375 C 8.601562 -30.585938 9.570312 -29.429688 10.21875 -28.140625 C 10.863281 -26.859375 10.925781 -25.769531 10.40625 -24.875 C 8.738281 -22.039062 7.195312 -19.175781 5.78125 -16.28125 C 4.363281 -13.394531 3.078125 -10.472656 1.921875 -7.515625 C 1.671875 -6.742188 1.351562 -5.910156 0.96875 -5.015625 C 3.664062 -5.398438 7.195312 -6.617188 11.5625 -8.671875 C 15.9375 -10.734375 20.40625 -13.144531 24.96875 -15.90625 C 29.53125 -18.664062 33.351562 -21.332031 36.4375 -23.90625 Z M 19.09375 -43.953125 C 18.320312 -42.410156 17.003906 -42.023438 15.140625 -42.796875 C 13.273438 -43.566406 11.632812 -44.816406 10.21875 -46.546875 C 8.800781 -48.285156 8.414062 -49.863281 9.0625 -51.28125 C 10.21875 -53.59375 11.050781 -55.296875 11.5625 -56.390625 C 12.082031 -57.484375 12.34375 -58.03125 12.34375 -58.03125 C 13.113281 -59.1875 14.140625 -59.664062 15.421875 -59.46875 C 16.710938 -59.28125 17.96875 -58.671875 19.1875 -57.640625 C 20.40625 -56.617188 21.367188 -55.460938 22.078125 -54.171875 C 22.785156 -52.890625 22.878906 -51.734375 22.359375 -50.703125 C 22.359375 -50.703125 22.164062 -50.285156 21.78125 -49.453125 C 21.394531 -48.617188 20.5 -46.785156 19.09375 -43.953125 Z M 19.09375 -43.953125 "/></g></g></g><g fill="#2f323a" fill-opacity="1"><g transform="translate(478.244407, 458.286248)"><g><path d="M 77.125 -24.875 C 78.53125 -25.507812 79.8125 -25.378906 80.96875 -24.484375 C 82.125 -23.585938 82.796875 -22.460938 82.984375 -21.109375 C 83.179688 -19.765625 82.445312 -18.707031 80.78125 -17.9375 C 75.894531 -15.488281 71.070312 -12.882812 66.3125 -10.125 C 61.5625 -7.363281 56.8125 -4.503906 52.0625 -1.546875 C 49.226562 0.253906 46.203125 2.210938 42.984375 4.328125 C 39.773438 6.453125 36.4375 7.96875 32.96875 8.875 C 29.625 9.644531 26.695312 8.742188 24.1875 6.171875 C 21.6875 3.597656 20.691406 0.640625 21.203125 -2.703125 C 21.460938 -4.628906 21.945312 -6.523438 22.65625 -8.390625 C 23.363281 -10.253906 24.164062 -12.148438 25.0625 -14.078125 C 14.007812 -7.898438 4.367188 0.0664062 -3.859375 9.828125 C -4.878906 11.117188 -6.191406 11.28125 -7.796875 10.3125 C -9.410156 9.351562 -10.796875 7.972656 -11.953125 6.171875 C -13.109375 4.367188 -13.554688 2.890625 -13.296875 1.734375 C -12.015625 -3.148438 -10.28125 -7.9375 -8.09375 -12.625 C -5.90625 -17.320312 -3.53125 -21.914062 -0.96875 -26.40625 C -0.320312 -27.5625 0.640625 -28.039062 1.921875 -27.84375 C 3.210938 -27.65625 4.5 -27.046875 5.78125 -26.015625 C 7.070312 -24.992188 8.035156 -23.804688 8.671875 -22.453125 C 9.316406 -21.109375 9.382812 -19.988281 8.875 -19.09375 C 8.875 -18.957031 8.835938 -18.828125 8.765625 -18.703125 C 8.703125 -18.578125 8.609375 -18.445312 8.484375 -18.3125 C 17.222656 -24.351562 26.671875 -28.914062 36.828125 -32 C 38.234375 -32.519531 39.707031 -32.234375 41.25 -31.140625 C 42.800781 -30.046875 43.992188 -28.691406 44.828125 -27.078125 C 45.660156 -25.472656 45.691406 -23.96875 44.921875 -22.5625 C 43.253906 -19.863281 41.679688 -17.128906 40.203125 -14.359375 C 38.722656 -11.597656 37.273438 -8.804688 35.859375 -5.984375 C 42.546875 -9.316406 49.421875 -12.523438 56.484375 -15.609375 C 63.554688 -18.703125 70.4375 -21.789062 77.125 -24.875 Z M 77.125 -24.875 "/></g></g></g><g fill="#2f323a" fill-opacity="1"><g transform="translate(555.925623, 458.286248)"><g><path d="M 66.125 -26.40625 C 67.539062 -27.050781 68.921875 -26.765625 70.265625 -25.546875 C 71.617188 -24.328125 72.488281 -22.878906 72.875 -21.203125 C 73.257812 -19.535156 72.617188 -18.316406 70.953125 -17.546875 C 63.109375 -14.078125 55.585938 -9.992188 48.390625 -5.296875 C 41.191406 -0.609375 34.507812 4.625 28.34375 10.40625 C 19.601562 35.34375 9.640625 59.570312 -1.546875 83.09375 C -2.316406 84.769531 -3.441406 85.285156 -4.921875 84.640625 C -6.398438 83.992188 -7.78125 82.929688 -9.0625 81.453125 C -10.34375 79.972656 -11.113281 78.847656 -11.375 78.078125 C -14.070312 71.015625 -14.84375 63.882812 -13.6875 56.6875 C -12.53125 49.488281 -10.179688 42.515625 -6.640625 35.765625 C -3.109375 29.015625 0.773438 22.878906 5.015625 17.359375 C 9.128906 12.085938 13.691406 7.007812 18.703125 2.125 C 20.117188 -1.726562 21.53125 -5.78125 22.9375 -10.03125 C 18.1875 -6.8125 13.625 -3.304688 9.25 0.484375 C 4.882812 4.273438 -0.0625 7.265625 -5.59375 9.453125 C -6.875 9.960938 -8.222656 9.734375 -9.640625 8.765625 C -11.054688 7.804688 -12.210938 6.554688 -13.109375 5.015625 C -14.003906 3.472656 -14.328125 2.054688 -14.078125 0.765625 C -12.785156 -5.015625 -10.597656 -10.632812 -7.515625 -16.09375 C -4.429688 -21.5625 -0.515625 -26.09375 4.234375 -29.6875 C 8.222656 -32.644531 12.46875 -33.769531 16.96875 -33.0625 C 21.46875 -32.351562 25.066406 -30.007812 27.765625 -26.03125 C 28.273438 -26.15625 28.722656 -26.28125 29.109375 -26.40625 C 30.398438 -26.789062 31.78125 -26.535156 33.25 -25.640625 C 34.726562 -24.742188 35.945312 -23.554688 36.90625 -22.078125 C 37.875 -20.597656 38.164062 -19.148438 37.78125 -17.734375 C 37.394531 -16.835938 37.039062 -15.875 36.71875 -14.84375 C 36.40625 -13.8125 36.117188 -12.785156 35.859375 -11.765625 C 41.390625 -14.847656 46.59375 -17.515625 51.46875 -19.765625 C 56.351562 -22.015625 61.238281 -24.226562 66.125 -26.40625 Z M 4.4375 -11.375 C 7.007812 -13.5625 9.609375 -15.679688 12.234375 -17.734375 C 14.867188 -19.796875 17.664062 -21.597656 20.625 -23.140625 C 20.375 -23.140625 20.054688 -23.203125 19.671875 -23.328125 C 19.285156 -23.328125 18.898438 -23.296875 18.515625 -23.234375 C 18.128906 -23.171875 17.742188 -23.070312 17.359375 -22.9375 C 16.328125 -22.6875 15.328125 -22.238281 14.359375 -21.59375 C 13.398438 -20.945312 12.535156 -20.304688 11.765625 -19.671875 C 10.472656 -18.515625 9.25 -17.289062 8.09375 -16 C 6.9375 -14.71875 5.84375 -13.429688 4.8125 -12.140625 C 4.6875 -12.015625 4.59375 -11.882812 4.53125 -11.75 C 4.46875 -11.625 4.4375 -11.5 4.4375 -11.375 Z M -1.15625 52.828125 C -0.507812 51.285156 0.160156 49.742188 0.859375 48.203125 C 1.566406 46.660156 2.242188 45.117188 2.890625 43.578125 C 1.222656 46.785156 -0.125 49.867188 -1.15625 52.828125 Z M -1.15625 52.828125 "/></g></g></g><g fill="#2f323a" fill-opacity="1"><g transform="translate(761.28964, 508.975786)"><g><path d="M 159.25 -70.75 C 162.332031 -69.207031 164.289062 -67.179688 165.125 -64.671875 C 165.96875 -62.171875 166.128906 -59.472656 165.609375 -56.578125 C 165.097656 -53.691406 164.296875 -50.832031 163.203125 -48 C 162.109375 -45.175781 161.113281 -42.609375 160.21875 -40.296875 C 158.414062 -35.671875 156.550781 -31.039062 154.625 -26.40625 C 152.695312 -21.78125 150.894531 -17.09375 149.21875 -12.34375 C 148.445312 -10.539062 147.578125 -8.253906 146.609375 -5.484375 C 145.648438 -2.722656 144.976562 0.00390625 144.59375 2.703125 C 144.207031 5.398438 144.53125 7.773438 145.5625 9.828125 C 146.070312 10.984375 146.226562 12.078125 146.03125 13.109375 C 145.84375 14.140625 145.046875 14.71875 143.640625 14.84375 C 142.222656 14.96875 140.835938 14.421875 139.484375 13.203125 C 138.140625 11.984375 137.207031 10.796875 136.6875 9.640625 C 135.019531 6.421875 134.347656 3.015625 134.671875 -0.578125 C 134.992188 -4.179688 135.601562 -7.71875 136.5 -11.1875 C 137.78125 -16.070312 139.382812 -20.890625 141.3125 -25.640625 C 143.25 -30.398438 145.179688 -35.15625 147.109375 -39.90625 C 148.390625 -42.988281 149.703125 -46.132812 151.046875 -49.34375 C 152.398438 -52.5625 153.59375 -55.78125 154.625 -59 C 153.976562 -58.613281 153.363281 -58.226562 152.78125 -57.84375 C 152.207031 -57.457031 151.664062 -57.070312 151.15625 -56.6875 C 148.96875 -55.007812 146.8125 -53.238281 144.6875 -51.375 C 142.570312 -49.507812 140.484375 -47.679688 138.421875 -45.890625 C 133.410156 -41.128906 128.625 -36.144531 124.0625 -30.9375 C 119.5 -25.738281 115.097656 -20.4375 110.859375 -15.03125 C 107.128906 -10.15625 103.5625 -5.113281 100.15625 0.09375 C 96.75 5.300781 94.019531 10.796875 91.96875 16.578125 C 91.320312 18.253906 90.160156 18.738281 88.484375 18.03125 C 86.816406 17.320312 85.273438 16.128906 83.859375 14.453125 C 82.453125 12.785156 81.75 11.375 81.75 10.21875 C 81.875 6.613281 82.644531 3.015625 84.0625 -0.578125 C 85.476562 -4.179688 86.828125 -7.648438 88.109375 -10.984375 C 90.296875 -16.253906 92.578125 -21.457031 94.953125 -26.59375 C 97.328125 -31.738281 99.671875 -36.945312 101.984375 -42.21875 C 104.941406 -49.164062 108.09375 -56.585938 111.4375 -64.484375 C 114.78125 -72.390625 116.644531 -80.203125 117.03125 -87.921875 C 114.71875 -86.765625 112.628906 -85.253906 110.765625 -83.390625 C 108.898438 -81.523438 107.066406 -79.691406 105.265625 -77.890625 C 98.453125 -70.816406 91.992188 -63.359375 85.890625 -55.515625 C 79.785156 -47.679688 73.90625 -39.78125 68.25 -31.8125 C 60.28125 -20.757812 52.566406 -9.546875 45.109375 1.828125 C 37.660156 13.203125 30.335938 24.738281 23.140625 36.4375 C 22.492188 37.59375 21.492188 38.070312 20.140625 37.875 C 18.796875 37.6875 17.507812 37.078125 16.28125 36.046875 C 15.0625 35.023438 14.097656 33.835938 13.390625 32.484375 C 12.691406 31.140625 12.660156 30.015625 13.296875 29.109375 C 20.492188 16.640625 27.59375 4.109375 34.59375 -8.484375 C 41.601562 -21.078125 47.9375 -34.054688 53.59375 -47.421875 C 56.164062 -53.210938 58.546875 -59.128906 60.734375 -65.171875 C 62.921875 -71.210938 64.847656 -77.378906 66.515625 -83.671875 C 66.898438 -85.210938 67.285156 -86.785156 67.671875 -88.390625 C 68.054688 -90.003906 68.25 -91.644531 68.25 -93.3125 C 68.25 -93.4375 68.25 -93.785156 68.25 -94.359375 C 68.25 -94.941406 68.1875 -95.492188 68.0625 -96.015625 C 67.675781 -96.015625 67.289062 -95.976562 66.90625 -95.90625 C 66.519531 -95.84375 66.132812 -95.75 65.75 -95.625 C 63.5625 -94.851562 61.46875 -93.789062 59.46875 -92.4375 C 57.476562 -91.09375 55.519531 -89.648438 53.59375 -88.109375 C 48.457031 -83.992188 43.671875 -79.332031 39.234375 -74.125 C 34.796875 -68.925781 30.84375 -63.5 27.375 -57.84375 C 24.164062 -52.570312 21.335938 -46.882812 18.890625 -40.78125 C 16.453125 -34.675781 15.488281 -28.472656 16 -22.171875 C 16.125 -20.628906 15.546875 -19.828125 14.265625 -19.765625 C 12.984375 -19.703125 11.890625 -19.925781 10.984375 -20.4375 C 9.703125 -21.082031 8.546875 -22.046875 7.515625 -23.328125 C 6.492188 -24.609375 5.914062 -25.957031 5.78125 -27.375 C 5.132812 -35.601562 6.644531 -43.671875 10.3125 -51.578125 C 13.976562 -59.484375 18.125 -66.644531 22.75 -73.0625 C 26.738281 -78.71875 31.238281 -84.179688 36.25 -89.453125 C 41.257812 -94.722656 46.722656 -99.160156 52.640625 -102.765625 C 55.722656 -104.554688 58.898438 -105.675781 62.171875 -106.125 C 65.453125 -106.582031 68.472656 -106.070312 71.234375 -104.59375 C 74.003906 -103.113281 76.09375 -100.445312 77.5 -96.59375 C 78.53125 -93.894531 78.914062 -91.097656 78.65625 -88.203125 C 78.40625 -85.304688 77.957031 -82.507812 77.3125 -79.8125 C 76.414062 -75.570312 75.257812 -71.332031 73.84375 -67.09375 C 72.425781 -62.851562 70.945312 -58.675781 69.40625 -54.5625 C 74.675781 -61.632812 80.203125 -68.769531 85.984375 -75.96875 C 91.765625 -83.164062 98.128906 -89.460938 105.078125 -94.859375 C 106.742188 -96.140625 108.671875 -97.390625 110.859375 -98.609375 C 113.046875 -99.835938 115.296875 -100.128906 117.609375 -99.484375 C 120.304688 -98.835938 122.488281 -97.328125 124.15625 -94.953125 C 125.832031 -92.578125 126.796875 -90.101562 127.046875 -87.53125 C 127.429688 -84.0625 127.238281 -80.492188 126.46875 -76.828125 C 125.695312 -73.160156 124.863281 -69.722656 123.96875 -66.515625 C 122.550781 -61.503906 120.878906 -56.585938 118.953125 -51.765625 C 117.023438 -46.941406 115.035156 -42.15625 112.984375 -37.40625 C 116.703125 -41.769531 120.585938 -46.007812 124.640625 -50.125 C 128.691406 -54.238281 132.898438 -58.09375 137.265625 -61.6875 C 139.066406 -63.238281 141.1875 -64.941406 143.625 -66.796875 C 146.070312 -68.660156 148.644531 -70.109375 151.34375 -71.140625 C 154.039062 -72.171875 156.675781 -72.039062 159.25 -70.75 Z M 120.3125 -89.453125 C 120.5625 -89.453125 120.6875 -89.515625 120.6875 -89.640625 C 120.6875 -89.773438 120.5625 -89.710938 120.3125 -89.453125 Z M 70.171875 -96.40625 C 70.304688 -96.269531 70.40625 -96.265625 70.46875 -96.390625 C 70.53125 -96.523438 70.429688 -96.53125 70.171875 -96.40625 Z M 116.828125 -92.734375 C 116.828125 -92.859375 116.828125 -92.921875 116.828125 -92.921875 C 116.703125 -92.921875 116.703125 -92.859375 116.828125 -92.734375 Z M 155.78125 -65.75 C 155.65625 -65.75 155.65625 -65.617188 155.78125 -65.359375 C 155.90625 -65.617188 155.90625 -65.75 155.78125 -65.75 Z M 155.78125 -65.75 "/></g></g></g><g fill="#2f323a" fill-opacity="1"><g transform="translate(932.843725, 508.975786)"><g><path d="M 36.4375 -23.90625 C 37.59375 -24.9375 38.910156 -25.160156 40.390625 -24.578125 C 41.867188 -24.003906 42.925781 -23.039062 43.5625 -21.6875 C 44.207031 -20.34375 43.953125 -19.15625 42.796875 -18.125 C 39.710938 -15.550781 36.53125 -13.007812 33.25 -10.5 C 29.976562 -8 26.671875 -5.59375 23.328125 -3.28125 C 20.503906 -1.476562 17.546875 0.382812 14.453125 2.3125 C 11.367188 4.238281 8.222656 5.585938 5.015625 6.359375 C 2.441406 6.742188 0.03125 6.359375 -2.21875 5.203125 C -4.46875 4.046875 -6.296875 2.40625 -7.703125 0.28125 C -9.117188 -1.832031 -9.828125 -4.175781 -9.828125 -6.75 C -9.960938 -10.988281 -8.804688 -15.390625 -6.359375 -19.953125 C -3.921875 -24.515625 -1.671875 -28.597656 0.390625 -32.203125 C 1.160156 -33.359375 2.1875 -33.804688 3.46875 -33.546875 C 4.75 -33.285156 6.03125 -32.640625 7.3125 -31.609375 C 8.601562 -30.585938 9.570312 -29.429688 10.21875 -28.140625 C 10.863281 -26.859375 10.925781 -25.769531 10.40625 -24.875 C 8.738281 -22.039062 7.195312 -19.175781 5.78125 -16.28125 C 4.363281 -13.394531 3.078125 -10.472656 1.921875 -7.515625 C 1.671875 -6.742188 1.351562 -5.910156 0.96875 -5.015625 C 3.664062 -5.398438 7.195312 -6.617188 11.5625 -8.671875 C 15.9375 -10.734375 20.40625 -13.144531 24.96875 -15.90625 C 29.53125 -18.664062 33.351562 -21.332031 36.4375 -23.90625 Z M 19.09375 -43.953125 C 18.320312 -42.410156 17.003906 -42.023438 15.140625 -42.796875 C 13.273438 -43.566406 11.632812 -44.816406 10.21875 -46.546875 C 8.800781 -48.285156 8.414062 -49.863281 9.0625 -51.28125 C 10.21875 -53.59375 11.050781 -55.296875 11.5625 -56.390625 C 12.082031 -57.484375 12.34375 -58.03125 12.34375 -58.03125 C 13.113281 -59.1875 14.140625 -59.664062 15.421875 -59.46875 C 16.710938 -59.28125 17.96875 -58.671875 19.1875 -57.640625 C 20.40625 -56.617188 21.367188 -55.460938 22.078125 -54.171875 C 22.785156 -52.890625 22.878906 -51.734375 22.359375 -50.703125 C 22.359375 -50.703125 22.164062 -50.285156 21.78125 -49.453125 C 21.394531 -48.617188 20.5 -46.785156 19.09375 -43.953125 Z M 19.09375 -43.953125 "/></g></g></g><g fill="#2f323a" fill-opacity="1"><g transform="translate(970.624156, 508.975786)"><g><path d="M 33.546875 -34.125 C 34.578125 -34.894531 35.765625 -35.019531 37.109375 -34.5 C 38.460938 -33.988281 39.71875 -33.125 40.875 -31.90625 C 42.03125 -30.6875 42.800781 -29.460938 43.1875 -28.234375 C 43.570312 -27.015625 43.316406 -26.019531 42.421875 -25.25 C 38.691406 -22.425781 34.960938 -19.597656 31.234375 -16.765625 C 27.503906 -13.941406 23.773438 -11.117188 20.046875 -8.296875 C 25.703125 -2.640625 32.066406 1.148438 39.140625 3.078125 C 40.421875 3.335938 40.929688 4.046875 40.671875 5.203125 C 40.421875 6.359375 39.78125 7.546875 38.75 8.765625 C 37.71875 9.992188 36.523438 11.023438 35.171875 11.859375 C 33.828125 12.691406 32.578125 12.976562 31.421875 12.71875 C 23.328125 10.539062 16.128906 6.046875 9.828125 -0.765625 C 7.265625 1.285156 4.628906 3.304688 1.921875 5.296875 C -0.773438 7.296875 -3.410156 9.320312 -5.984375 11.375 C -7.003906 12.144531 -8.222656 12.238281 -9.640625 11.65625 C -11.054688 11.082031 -12.34375 10.21875 -13.5 9.0625 C -14.65625 7.90625 -15.425781 6.679688 -15.8125 5.390625 C -16.195312 4.109375 -15.9375 3.144531 -15.03125 2.5 C -12.082031 0.1875 -9.128906 -2.054688 -6.171875 -4.234375 C -3.210938 -6.421875 -0.253906 -8.671875 2.703125 -10.984375 C 1.285156 -13.816406 0.222656 -16.773438 -0.484375 -19.859375 C -1.191406 -22.941406 -1.414062 -26.023438 -1.15625 -29.109375 C -1.03125 -30.265625 -0.421875 -31.421875 0.671875 -32.578125 C 1.765625 -33.734375 3.019531 -34.664062 4.4375 -35.375 C 5.851562 -36.082031 7.070312 -36.367188 8.09375 -36.234375 C 9.125 -36.109375 9.578125 -35.273438 9.453125 -33.734375 C 9.191406 -31.035156 9.347656 -28.398438 9.921875 -25.828125 C 10.503906 -23.265625 11.4375 -20.828125 12.71875 -18.515625 C 16.195312 -21.078125 19.671875 -23.675781 23.140625 -26.3125 C 26.609375 -28.945312 30.078125 -31.550781 33.546875 -34.125 Z M 33.546875 -34.125 "/></g></g></g><g clip-path="url(#fbc405d53d)"><path fill="#000000" d="M 501.269531 263.933594 C 513 255.558594 534.019531 254.9375 572.160156 254.265625 C 534.019531 253.59375 513 252.976562 501.269531 244.601562 C 505.257812 236.40625 514.046875 226.792969 527.691406 212.285156 C 513.183594 225.929688 503.570312 234.71875 495.378906 238.707031 C 487 226.980469 486.382812 205.960938 485.710938 167.816406 C 485.039062 205.960938 484.421875 226.980469 476.046875 238.707031 C 467.851562 234.722656 458.238281 225.929688 443.730469 212.285156 C 457.375 226.792969 466.164062 236.40625 470.152344 244.601562 C 458.425781 252.976562 437.402344 253.59375 399.261719 254.265625 C 437.402344 254.9375 458.425781 255.558594 470.152344 263.933594 C 466.164062 272.125 457.375 281.738281 443.730469 296.246094 C 458.238281 282.601562 467.851562 273.8125 476.046875 269.828125 C 484.421875 281.554688 485.039062 302.574219 485.710938 340.714844 C 486.382812 302.574219 487 281.554688 495.378906 269.828125 C 503.570312 273.8125 513.183594 282.601562 527.691406 296.246094 C 514.046875 281.738281 505.257812 272.125 501.269531 263.933594 Z M 501.269531 263.933594 " fill-opacity="1" fill-rule="nonzero"/></g><g clip-path="url(#91b60268d9)"><path fill="#000000" d="M 908.710938 378.804688 C 914.824219 374.4375 925.789062 374.117188 945.679688 373.765625 C 925.789062 373.414062 914.824219 373.09375 908.710938 368.722656 C 910.789062 364.453125 915.371094 359.4375 922.488281 351.871094 C 914.921875 358.988281 909.910156 363.570312 905.636719 365.648438 C 901.269531 359.535156 900.945312 348.570312 900.59375 328.679688 C 900.246094 348.570312 899.921875 359.535156 895.554688 365.648438 C 891.28125 363.570312 886.269531 358.988281 878.703125 351.871094 C 885.816406 359.4375 890.402344 364.453125 892.480469 368.722656 C 886.363281 373.09375 875.402344 373.414062 855.511719 373.765625 C 875.402344 374.117188 886.363281 374.4375 892.480469 378.804688 C 890.402344 383.078125 885.816406 388.089844 878.703125 395.65625 C 886.269531 388.542969 891.28125 383.957031 895.554688 381.878906 C 899.921875 387.996094 900.246094 398.957031 900.59375 418.847656 C 900.945312 398.957031 901.269531 387.996094 905.636719 381.878906 C 909.910156 383.957031 914.921875 388.542969 922.488281 395.65625 C 915.371094 388.089844 910.789062 383.078125 908.710938 378.804688 Z M 908.710938 378.804688 " fill-opacity="1" fill-rule="nonzero"/></g></svg>